<svg width="79" height="56" viewBox="0 0 79 56" fill="none" xmlns="http://www.w3.org/2000/svg">
<path d="M43.5588 33.4502L77.416 7.45025C78.4439 6.63297 79.0126 5.53836 78.9998 4.40218C78.9869 3.26599 78.3935 2.17914 77.3472 1.3757C76.301 0.572267 74.8857 0.116534 73.4062 0.10666C71.9266 0.0967873 70.5012 0.533565 69.437 1.32292L39.5693 24.2593L9.70171 1.32292C9.18117 0.909039 8.55851 0.578915 7.87006 0.35181C7.18161 0.124704 6.44115 0.00516348 5.69189 0.000163614C4.94264 -0.00483626 4.1996 0.104804 3.50611 0.322687C2.81263 0.540571 2.18259 0.862335 1.65276 1.2692C1.12294 1.67607 0.703935 2.1599 0.420207 2.69245C0.136479 3.225 -0.00629331 3.79561 0.000217506 4.37099C0.00672833 4.94637 0.162399 5.51498 0.458136 6.04367C0.753872 6.57235 1.18375 7.05051 1.7227 7.45025L35.5798 33.4502C36.638 34.2626 38.0731 34.719 39.5693 34.719C41.0656 34.719 42.5007 34.2626 43.5588 33.4502Z" fill="#E6E6E6" fill-opacity="0.45"/>
<path d="M43.5588 54.4503L77.416 28.4503C78.4439 27.633 79.0126 26.5384 78.9998 25.4022C78.9869 24.266 78.3935 23.1791 77.3472 22.3757C76.301 21.5723 74.8857 21.1165 73.4062 21.1067C71.9266 21.0968 70.5012 21.5336 69.437 22.3229L39.5693 45.2593L9.70171 22.3229C9.18117 21.909 8.55851 21.5789 7.87006 21.3518C7.18161 21.1247 6.44115 21.0052 5.69189 21.0002C4.94264 20.9952 4.1996 21.1048 3.50611 21.3227C2.81263 21.5406 2.18259 21.8623 1.65276 22.2692C1.12294 22.6761 0.703935 23.1599 0.420207 23.6925C0.136479 24.225 -0.00629331 24.7956 0.000217506 25.371C0.00672833 25.9464 0.162399 26.515 0.458136 27.0437C0.753872 27.5724 1.18375 28.0505 1.7227 28.4503L35.5798 54.4503C36.638 55.2626 38.0731 55.719 39.5693 55.719C41.0656 55.719 42.5007 55.2626 43.5588 54.4503Z" fill="#E6E6E6" fill-opacity="0.45"/>
</svg>
