<svg width="120" height="120" viewBox="0 0 120 120" fill="none" xmlns="http://www.w3.org/2000/svg">
<path fill-rule="evenodd" clip-rule="evenodd" d="M102.426 102.426C113.759 91.0936 120 76.0261 120 59.9995C120 43.973 113.759 28.9055 102.426 17.5732C91.0934 6.24094 76.0259 0 59.9993 0C50.5945 0 41.5884 2.11547 33.2313 6.28805C28.0877 8.85633 23.3032 12.1983 19.0777 16.1367V13.7119C19.0777 11.6407 17.3986 9.96187 15.3277 9.96187C13.2567 9.96187 11.5777 11.6407 11.5777 13.7119V25.8188C11.5777 27.8899 13.2567 29.5688 15.3277 29.5688H27.4336C29.5045 29.5688 31.1836 27.8899 31.1836 25.8188C31.1836 23.7476 29.5045 22.0688 27.4336 22.0688H23.6909C33.4055 12.7336 46.2785 7.5 59.9993 7.5C88.9484 7.5 112.5 31.0512 112.5 59.9995C112.5 88.9488 88.9484 112.5 59.9995 112.5C31.0512 112.5 7.5 88.9488 7.5 59.9995C7.5 57.7034 7.64906 55.3957 7.9432 53.141C8.21109 51.0872 6.76336 49.2054 4.70977 48.9375C2.6543 48.6687 0.774141 50.1173 0.50625 52.1709C0.170391 54.7465 0 57.3804 0 59.9995C0 76.0263 6.24094 91.0936 17.5732 102.426C28.9055 113.759 43.9727 120 59.9993 120C76.0259 120 91.0934 113.759 102.426 102.426ZM59.9993 22.8795C39.5313 22.8795 22.8792 39.5316 22.8792 59.9995C22.8792 80.4677 39.5313 97.1198 59.9993 97.1198C80.4675 97.1198 97.1196 80.4677 97.1196 59.9995C97.1196 39.5316 80.4675 22.8795 59.9993 22.8795ZM30.6155 56.2495H32.2303C34.3013 56.2495 35.9803 57.9284 35.9803 59.9995C35.9803 62.0707 34.3013 63.7495 32.2303 63.7495H30.6155C32.3084 77.0899 42.9089 87.6905 56.2493 89.3834V87.7697C56.2493 85.6985 57.9284 84.0197 59.9993 84.0197C62.0702 84.0197 63.7493 85.6985 63.7493 87.7697V89.3834C77.0897 87.6905 87.6902 77.0899 89.3831 63.7495H87.7697C85.6988 63.7495 84.0197 62.0707 84.0197 59.9995C84.0197 57.9284 85.6988 56.2495 87.7697 56.2495H89.3831C87.6902 42.9094 77.0897 32.3088 63.7493 30.6159V32.2308C63.7493 34.302 62.0702 35.9808 59.9993 35.9808C57.9284 35.9808 56.2493 34.302 56.2493 32.2308V30.6159C42.9089 32.3088 32.3084 42.9094 30.6155 56.2495ZM52.7841 73.3127L42.5114 64.6959C40.9245 63.3649 40.717 60.9998 42.0483 59.4131C43.3795 57.8264 45.7448 57.6192 47.3313 58.9498L54.9066 65.3039L72.3633 46.9748C73.7916 45.4748 76.1653 45.417 77.6651 46.8455C79.1648 48.2738 79.2225 50.6475 77.7942 52.147L57.9094 73.0256C57.1751 73.797 56.186 74.1895 55.193 74.1895C54.3403 74.1895 53.4846 73.9003 52.7841 73.3127Z" fill="#414141"/>
</svg>
