<svg width="120" height="122" viewBox="0 0 120 122" fill="none" xmlns="http://www.w3.org/2000/svg">
<path fill-rule="evenodd" clip-rule="evenodd" d="M116.514 30.8108C116.444 30.6418 116.372 30.3135 116.672 30.0124L118.659 28.026L107.606 16.9727L105.619 18.9592C105.318 19.2603 104.99 19.1878 104.821 19.1179C104.652 19.0481 104.368 18.8671 104.368 18.4411V15.6316H88.7368V18.4409C88.7368 18.8668 88.4533 19.0478 88.2845 19.1177C88.1157 19.1875 87.7872 19.2601 87.4858 18.9589L85.4994 16.9725L74.4464 28.0255L76.4328 30.0119C76.734 30.3131 76.6617 30.6416 76.5916 30.8106C76.5217 30.9794 76.3407 31.2629 75.9148 31.2629H73.1055V35.1708H61.3818V34.5216C64.2575 33.1035 66.3133 30.4572 66.996 27.355H69.1976C72.4299 27.355 75.0594 24.7255 75.0594 21.4932C75.0594 19.3866 73.942 17.5367 72.2692 16.5033L72.4876 15.848C72.8974 14.6177 73.1052 13.3369 73.1052 12.0405C73.1052 5.40144 67.7038 0 61.0645 0H49.9751C43.3359 0 37.9344 5.40144 37.9344 12.0407C37.9344 13.3372 38.1423 14.618 38.5524 15.8482L38.7707 16.5033C37.0979 17.5367 35.9805 19.3866 35.9805 21.4932C35.9805 24.7255 38.61 27.355 41.8423 27.355H44.0439C44.7266 30.4572 46.7824 33.1035 49.6581 34.5216V35.2399C42.367 35.758 35.5697 39.1608 30.7752 44.7542L28.3816 47.5466C26.9818 49.1799 26.2107 51.264 26.2107 53.4151C26.2107 56.0509 27.3584 58.5464 29.3598 60.262L39.4495 68.9101C40.107 69.4738 40.8763 69.8807 41.698 70.1138L41.367 74.25H20.3487C19.2713 74.25 18.3947 73.3734 18.3947 72.2961V63.3355L20.9209 65.8617L23.684 63.0986L16.4405 55.8551L9.19699 63.0986L11.9601 65.8617L14.4863 63.3355V72.2961C14.4863 75.5281 17.1161 78.1579 20.3482 78.1579H41.0537L40.4284 85.9737H7.48045L10.0067 83.4475L7.24353 80.6844L0 87.9277L7.24353 95.1712L10.0067 92.4081L7.48045 89.8816H40.1165L39.4912 97.6974H20.3487C17.1163 97.6974 14.4868 100.327 14.4868 103.559V112.52L11.9606 109.993L9.19748 112.756L16.441 120L23.6845 112.756L20.9214 109.993L18.3952 112.52V103.559C18.3952 102.482 19.2718 101.605 20.3491 101.605H39.1789L38.0211 116.077C37.9647 116.456 37.9347 116.843 37.9347 117.237C37.9347 119.392 39.6879 121.145 41.8426 121.145H49.6584C51.7464 121.145 53.4522 119.497 53.5562 117.435L55.5202 98.7769L57.4842 117.435C57.5882 119.497 59.294 121.145 61.3821 121.145H69.1978C71.3526 121.145 73.1057 119.392 73.1057 117.237C73.1057 116.843 73.0757 116.456 73.0193 116.077L69.1978 68.3098V46.8947H73.1057H75.0597H75.915C76.341 46.8947 76.522 47.1783 76.5918 47.3471C76.6619 47.5161 76.7342 47.8444 76.4331 48.1458L74.4466 50.1322L84.8292 60.5147V100.484C84.8292 101.584 85.1374 102.658 85.7202 103.591L96.5529 120.923L107.386 103.591C107.968 102.659 108.277 101.584 108.277 100.484V60.5147L118.66 50.132L116.673 48.1455C116.372 47.8444 116.444 47.5159 116.514 47.3468C116.584 47.1781 116.765 46.8945 117.191 46.8945H120V31.2629H117.191C116.765 31.2632 116.584 30.9796 116.514 30.8108ZM69.1974 23.4474H67.2434V19.5395H69.1974C70.2747 19.5395 71.1513 20.4161 71.1513 21.4934C71.1513 22.5708 70.275 23.4474 69.1974 23.4474ZM41.8421 19.5395C40.7647 19.5395 39.8881 20.4161 39.8881 21.4934C39.8881 22.5708 40.7647 23.4474 41.8421 23.4474H43.796V19.5395H41.8421ZM43.9023 15.6316H42.5992L42.2597 14.6128C41.9828 13.7819 41.8423 12.9166 41.8423 12.041C41.8423 7.5564 45.4908 3.90814 49.9751 3.90814H61.0645C65.5491 3.90814 69.1974 7.55665 69.1974 12.041C69.1974 12.9166 69.0569 13.7819 68.7802 14.6128L68.4404 15.6316H66.9073C66.1008 13.3574 63.929 11.7237 61.3816 11.7237H58.6568C54.9003 11.7237 51.4135 9.85767 49.3296 6.73208L46.078 8.89974C46.6195 9.71185 47.2318 10.4602 47.9027 11.1404C45.8225 11.7923 44.3006 13.5296 43.9023 15.6316ZM47.7039 16.7287V25.0843C47.7039 27.9378 49.5228 30.4611 52.23 31.3636L53.566 31.8088V36.5335L55.52 39.4644L57.4739 36.5335V31.8088L58.8099 31.3636C61.5169 30.4613 63.3358 27.9378 63.3358 25.0843V17.5855C63.3358 16.5082 62.4592 15.6316 61.3818 15.6316H58.657C56.3294 15.6316 54.0794 15.0991 52.0534 14.1158L49.184 14.8332C48.3126 15.051 47.7039 15.8306 47.7039 16.7287ZM30.1184 53.4156C30.1184 52.1968 30.5553 51.0156 31.3484 50.0902L33.742 47.2978C37.995 42.3357 44.0859 39.3862 50.5823 39.1031L53.5655 43.5782V66.4342H49.2981C49.5309 65.7982 49.6581 65.1116 49.6581 64.396C49.6581 62.6262 48.8785 60.9612 47.5188 59.8282L45.7502 58.3544V51.6118C45.7502 49.3079 44.8531 47.1422 43.224 45.5131L40.4609 48.2762C41.3519 49.1672 41.8426 50.3518 41.8426 51.6118V55.0977L37.2317 51.2552L34.73 54.2575L40.8192 59.3316L38.2603 62.7437L31.9036 57.2951C30.7688 56.3233 30.1184 54.9091 30.1184 53.4156ZM45.7502 64.3963C45.7502 63.7896 45.483 63.2188 45.0168 62.8304L43.8249 61.8373L41.2332 65.2929L41.9925 65.9438C42.3618 66.2603 42.8327 66.4345 43.319 66.4345H43.712C44.8358 66.4345 45.7502 65.52 45.7502 64.3963ZM41.8421 117.237C41.8421 115.082 43.5953 113.329 45.75 113.329C47.9047 113.329 49.6579 115.082 49.6603 117.237H49.6579H41.8421ZM57.6048 81.2539L60.7253 110.898C62.0105 109.97 63.5866 109.421 65.2897 109.421C66.4826 109.421 67.6134 109.691 68.6261 110.171L65.4397 70.3421H45.6L42.4139 110.171C43.4265 109.691 44.5573 109.421 45.7502 109.421C47.4533 109.421 49.0294 109.97 50.3146 110.898L53.4351 81.2539L50.7384 79.9055L52.486 76.4101L55.52 77.9271L58.554 76.4101L60.3015 79.9055L57.6048 81.2539ZM61.3816 117.237C61.3816 115.082 63.1347 113.329 65.2895 113.329C67.4442 113.329 69.1974 115.082 69.1998 117.237H69.1974H61.3816ZM65.2895 66.4342V42.9869H73.1055V39.079H60.4735L57.4737 43.5784V66.4342H65.2895ZM104.368 97.6974H98.5066V62.5263H104.368V97.6974ZM104.018 101.605H89.0873L91.5298 105.513H101.576L104.018 101.605ZM94.5987 97.6974H88.7368V62.5263H94.5987V97.6974ZM96.5529 113.55L99.1335 109.421H93.9722L96.5529 113.55ZM116.092 43.1173C114.673 43.4604 113.48 44.4589 112.903 45.8516C112.326 47.2443 112.464 48.7937 113.225 50.0399L107.514 55.751C106.267 54.9904 104.718 54.8527 103.325 55.4296C101.933 56.0065 100.934 57.1994 100.591 58.6184H92.5143C92.1711 57.1994 91.1727 56.0065 89.78 55.4296C88.3873 54.8527 86.8378 54.9904 85.5917 55.751L79.8806 50.0399C80.6411 48.7937 80.7789 47.2443 80.202 45.8516C79.6251 44.4589 78.432 43.4604 77.0131 43.1173V35.0406C78.4322 34.6975 79.6251 33.699 80.202 32.3063C80.7789 30.9137 80.6411 29.3642 79.8806 28.118L85.5917 22.4069C86.8378 23.1675 88.3871 23.3055 89.78 22.7283C91.1727 22.1514 92.1711 20.9583 92.5143 19.5395H100.591C100.934 20.9585 101.933 22.1514 103.325 22.7283C104.718 23.3052 106.268 23.1677 107.514 22.4069L113.225 28.118C112.464 29.3642 112.326 30.9137 112.903 32.3063C113.48 33.699 114.673 34.6975 116.092 35.0406V43.1173ZM98.5066 27.3553H94.5987V42.9869H98.5066V27.3553ZM94.5987 46.8947H98.5066V50.8026H94.5987V46.8947ZM50.8026 27.3553C52.0625 28.6153 53.7377 29.3092 55.5197 29.3092C57.3017 29.3092 58.977 28.6153 60.237 27.3553L60.8091 26.783L58.0459 24.0199L57.4737 24.5921C56.9517 25.1138 56.2578 25.4013 55.5197 25.4013C54.7816 25.4013 54.0877 25.1141 53.5658 24.5921L52.9935 24.0199L50.2304 26.783L50.8026 27.3553Z" fill="#414141"/>
</svg>
