<?xml version="1.0" encoding="UTF-8"?>
<svg width="856px" height="490px" viewBox="0 0 856 490" version="1.1" xmlns="http://www.w3.org/2000/svg" xmlns:xlink="http://www.w3.org/1999/xlink">
    <title>izo_line _black</title>
    <g id="Page-1" stroke="none" stroke-width="1" fill="none" fill-rule="evenodd">
        <g id="Тутждут_грант__-Copy-9" transform="translate(-330.000000, -2164.000000)">
            <g id="для-кого-мы_клиенты" transform="translate(101.000000, 1154.000000)">
                <g id="client-block-copy" transform="translate(0.000000, 940.000000)">
                    <g id="izo_line-_black" transform="translate(245.000000, 72.000000)">
                        <path id="Path" d="M279.72575,483.233896 L279.874909,483.241699 C282.993529,483.520004 286.262707,483.640884 289.673994,483.606711 C290.778508,483.595647 291.682863,484.482063 291.693928,485.586577 C291.704992,486.691091 290.818576,487.595446 289.714062,487.606511 C286.173928,487.641974 282.773049,487.516224 279.519363,487.225866 C278.419166,487.127685 277.606871,486.156207 277.705052,485.05601 C277.794308,484.05583 278.605296,483.293587 279.578606,483.237028 L279.72575,483.233896 Z M311.606856,483.623425 C311.770461,484.715811 311.017534,485.733993 309.925148,485.897597 C306.486122,486.412653 303.133443,486.81372 299.874106,487.098036 C298.773715,487.194025 297.803858,486.379796 297.70787,485.279405 C297.611881,484.179014 298.42611,483.209157 299.526501,483.113168 C302.702253,482.836144 305.973413,482.444828 309.332684,481.941717 C310.425071,481.778113 311.443252,482.531039 311.606856,483.623425 Z M260.99189,478.904484 C262.171827,479.366203 263.355035,479.79568 264.540439,480.192357 C266.363581,480.802289 268.267683,481.328955 270.256198,481.774452 C271.334049,482.015929 272.012065,483.085455 271.770588,484.163306 C271.529112,485.241157 270.459585,485.919173 269.381734,485.677696 C267.262121,485.202828 265.226405,484.639759 263.271231,483.985655 C262.022073,483.567644 260.776104,483.115386 259.534281,482.62945 C258.50566,482.226942 257.998095,481.066783 258.400602,480.038162 C258.80311,479.009541 259.963269,478.501976 260.99189,478.904484 Z M331.170924,479.497909 C331.436716,480.570023 330.783063,481.65461 329.710949,481.920402 C326.375144,482.747394 323.092215,483.488358 319.868962,484.140559 C318.786333,484.35962 317.731104,483.659561 317.512042,482.576932 C317.29298,481.494303 317.99304,480.439074 319.075669,480.220012 C322.241368,479.579457 325.467935,478.851214 328.748431,478.037934 C329.820545,477.772142 330.905132,478.425795 331.170924,479.497909 Z M350.364366,473.827491 C350.70603,474.87789 350.131486,476.006381 349.081086,476.348045 C345.842418,477.401488 342.63178,478.387714 339.456213,479.30373 C338.394916,479.60987 337.286389,478.997693 336.98025,477.936395 C336.67411,476.875098 337.286287,475.766571 338.347585,475.460432 C341.479566,474.556988 344.647342,473.583928 347.843812,472.544211 C348.894211,472.202547 350.022702,472.777091 350.364366,473.827491 Z M243.809835,469.727714 C246.542638,471.597629 249.333392,473.297916 252.166234,474.817009 C253.139675,475.339011 253.50564,476.551307 252.983638,477.524748 C252.461636,478.49819 251.24934,478.864154 250.275899,478.342153 C247.315031,476.754406 244.401395,474.979253 241.551014,473.028885 C240.639421,472.405129 240.406083,471.160482 241.029839,470.248889 C241.653595,469.337296 242.898241,469.103958 243.809835,469.727714 Z M369.144673,466.959158 C369.547681,467.987583 369.040679,469.147989 368.012254,469.550996 C364.864704,470.784422 361.723796,471.964815 358.597163,473.088689 C357.557706,473.462324 356.412168,472.922568 356.038534,471.883111 C355.664899,470.843654 356.204655,469.698117 357.244112,469.324482 C360.334836,468.213516 363.440294,467.046446 366.552835,465.826739 C367.58126,465.423731 368.741666,465.930733 369.144673,466.959158 Z M228.796797,457.133519 C231.114541,459.480835 233.522603,461.70553 236.006543,463.793463 C236.852079,464.504197 236.961357,465.765803 236.250622,466.611339 C235.539888,467.456874 234.278282,467.566152 233.432746,466.855418 C230.853646,464.687496 228.3547,462.378839 225.950497,459.94396 C225.174415,459.157976 225.182443,457.891672 225.968427,457.11559 C226.754411,456.339508 228.020715,456.347536 228.796797,457.133519 Z M387.512897,459.07394 C387.969674,460.079638 387.524686,461.265208 386.518988,461.721985 C383.462435,463.110238 380.391256,464.457627 377.313982,465.759936 C376.296755,466.190428 375.123147,465.714786 374.692654,464.697559 C374.262162,463.680333 374.737804,462.506725 375.75503,462.076232 C378.80028,460.787476 381.839731,459.454007 384.864851,458.080031 C385.870549,457.623254 387.05612,458.068242 387.512897,459.07394 Z M405.473771,450.23786 C405.981801,451.218665 405.598542,452.425605 404.617737,452.933635 C401.657893,454.466755 398.659213,455.971002 395.631475,457.44112 C394.637841,457.923578 393.441232,457.509189 392.958774,456.515555 C392.476315,455.521922 392.890704,454.325313 393.884338,453.842854 C396.881028,452.387812 399.848836,450.899052 402.777995,449.381826 C403.7588,448.873795 404.96574,449.257055 405.473771,450.23786 Z M216.320275,442.025885 C218.177021,444.725875 220.153424,447.345533 222.237301,449.869125 C222.940615,450.720843 222.820309,451.981445 221.96859,452.684759 C221.116872,453.388072 219.85627,453.267766 219.152956,452.416048 C216.994506,449.802147 214.947521,447.088935 213.024394,444.292417 C212.398508,443.382285 212.628936,442.137096 213.539068,441.511211 C214.449201,440.885325 215.694389,441.115753 216.320275,442.025885 Z M422.93612,440.456094 C423.497764,441.407215 423.18203,442.633552 422.23091,443.195196 C419.385649,444.875343 416.470277,446.540429 413.496226,448.183713 C412.529423,448.717911 411.312622,448.367215 410.778425,447.400413 C410.244227,446.43361 410.594923,445.21681 411.561725,444.682612 C414.502576,443.057673 417.384816,441.41151 420.197018,439.750884 C421.148139,439.18924 422.374476,439.504974 422.93612,440.456094 Z M439.725195,429.634238 C440.350075,430.545061 440.118273,431.789994 439.20745,432.414874 C436.515924,434.261425 433.707578,436.111874 430.796151,437.957228 C429.8632,438.548562 428.627523,438.271626 428.036189,437.338675 C427.444855,436.405724 427.721791,435.170046 428.654742,434.578713 C431.525743,432.758982 434.293606,430.935207 436.944559,429.116492 C437.855382,428.491612 439.100315,428.723415 439.725195,429.634238 Z M206.665834,424.88335 C207.995708,427.850896 209.474048,430.777856 211.091428,433.647926 C211.63371,434.610217 211.293227,435.829914 210.330936,436.372197 C209.368645,436.914479 208.148948,436.573996 207.606665,435.611705 C205.929438,432.635434 204.395841,429.599071 203.015611,426.519159 C202.563895,425.511178 203.014837,424.327859 204.022818,423.876143 C205.0308,423.424427 206.214118,423.875369 206.665834,424.88335 Z M455.550389,417.399508 C456.265168,418.241627 456.161938,419.503743 455.319819,420.218522 C452.881355,422.288255 450.238916,424.395164 447.410102,426.526226 C446.527864,427.190853 445.273882,427.014443 444.609255,426.132205 C443.944628,425.249966 444.121037,423.995984 445.003276,423.331357 C447.77176,421.245744 450.35374,419.187041 452.731375,417.168938 C453.573495,416.454159 454.83561,416.557389 455.550389,417.399508 Z M200.442569,406.280554 C201.144995,409.431219 202.025016,412.580457 203.076149,415.712481 C203.427588,416.759651 202.863587,417.893447 201.816417,418.244886 C200.769248,418.596325 199.635451,418.032324 199.284012,416.985154 C198.188943,413.722218 197.271423,410.438785 196.53842,407.150966 C196.298062,406.072865 196.977188,405.004043 198.055289,404.763686 C199.13339,404.523328 200.202212,405.202453 200.442569,406.280554 Z M469.41228,403.014946 C470.245159,403.740471 470.332186,405.003807 469.606661,405.836686 C468.373923,407.251828 467.157393,408.635609 465.949837,409.995977 C464.977234,411.0914 463.927556,412.206609 462.803067,413.339804 C462.025036,414.123859 460.758715,414.128742 459.97466,413.350711 C459.190606,412.572681 459.185722,411.30636 459.963753,410.522305 C461.037334,409.440412 462.03643,408.378944 462.958544,407.340386 C464.157565,405.989633 465.365877,404.615199 466.59054,403.209327 C467.316065,402.376448 468.579401,402.289421 469.41228,403.014946 Z M482.311181,387.71281 C483.162194,388.416977 483.281237,389.677699 482.57707,390.528712 C480.373582,393.191714 478.235677,395.747993 476.148054,398.214456 C475.434443,399.057565 474.172472,399.162545 473.329362,398.448934 C472.486253,397.735323 472.381274,396.473352 473.094885,395.630243 C475.172612,393.175471 477.301012,390.630557 479.49528,387.978699 C480.199446,387.127686 481.460169,387.008643 482.311181,387.71281 Z M196.451112,384.923505 C197.555515,384.942714 198.435238,385.853581 198.416029,386.957983 C198.3601,390.173576 198.509209,393.426475 198.859612,396.70261 C198.977083,397.800915 198.181959,398.786496 197.083654,398.903967 C195.985349,399.021437 194.999768,398.226314 194.882297,397.128008 C194.514484,393.689098 194.357801,390.27097 194.416634,386.888421 C194.435843,385.784019 195.34671,384.904296 196.451112,384.923505 Z M494.909588,372.183918 C495.770965,372.875367 495.908719,374.134182 495.217269,374.99556 C493.029235,377.721317 490.943786,380.303939 488.924663,382.787078 C488.227803,383.644084 486.968145,383.773908 486.111139,383.077047 C485.254133,382.380187 485.124309,381.120529 485.821169,380.263523 C487.834763,377.787184 489.914972,375.211052 492.097946,372.491599 C492.789395,371.630222 494.04821,371.492468 494.909588,372.183918 Z M200.055709,365.232967 C201.112592,365.554017 201.709102,366.671052 201.388052,367.727934 C200.449654,370.817103 199.733829,373.977663 199.238795,377.198625 C199.071003,378.290375 198.049941,379.039392 196.958191,378.871599 C195.86644,378.703806 195.117424,377.682745 195.285217,376.590994 C195.808912,373.183542 196.566744,369.837509 197.560742,366.56531 C197.881792,365.508427 198.998827,364.911917 200.055709,365.232967 Z M507.352164,356.535849 C508.218135,357.221537 508.364284,358.479405 507.678596,359.345376 C505.370923,362.259789 503.368515,364.783584 501.458513,367.183874 C500.770742,368.048192 499.512526,368.191312 498.648208,367.503541 C497.78389,366.815771 497.64077,365.557555 498.328541,364.693237 C500.236331,362.295726 502.236815,359.774357 504.542637,356.862281 C505.228325,355.99631 506.486193,355.850161 507.352164,356.535849 Z M209.093174,347.435287 C210.013847,348.045563 210.265473,349.286641 209.655198,350.207313 C207.845863,352.936909 206.25551,355.758131 204.883167,358.663451 C204.4114,359.662205 203.219307,360.089412 202.220553,359.617646 C201.221799,359.145879 200.794591,357.953786 201.266358,356.955032 C202.720773,353.875962 204.405621,350.88711 206.321148,347.997311 C206.931423,347.076639 208.172502,346.825012 209.093174,347.435287 Z M519.774788,340.836218 C520.640497,341.522236 520.786166,342.78016 520.100147,343.645869 C519.952322,343.832414 519.805255,344.018025 519.658245,344.203586 L519.216687,344.761005 C517.740722,346.624473 516.200386,348.571492 513.894786,351.487209 C513.209666,352.353629 511.951893,352.500601 511.085473,351.815481 C510.219053,351.13036 510.072081,349.872588 510.757202,349.006168 C513.524723,345.506294 515.190154,343.401486 516.965137,341.161577 C517.651155,340.295868 518.909079,340.150199 519.774788,340.836218 Z M222.615681,332.75152 C223.356119,333.571169 223.291904,334.83587 222.472254,335.576308 C222.176411,335.843578 222.176411,335.843578 221.880562,336.110925 C219.613312,338.15989 217.510106,340.288983 215.570511,342.494416 C214.841053,343.323852 213.577319,343.4049 212.747883,342.675442 C211.918446,341.945984 211.837398,340.68225 212.566856,339.852814 C214.60794,337.531984 216.81861,335.294103 219.198605,333.143248 C219.494758,332.875626 219.494758,332.875626 219.790893,332.608093 C220.610543,331.867655 221.875244,331.93187 222.615681,332.75152 Z M532.252695,325.208916 C533.113514,325.90106 533.250252,327.159986 532.558107,328.020805 C530.563919,330.500975 528.500888,333.079465 526.312231,335.826124 C525.623876,336.689976 524.365563,336.832245 523.501711,336.14389 C522.637858,335.455535 522.49559,334.197222 523.183945,333.333369 C525.376095,330.582327 527.442751,327.999305 529.440805,325.514328 C530.13295,324.653509 531.391875,324.516771 532.252695,325.208916 Z M823.46468,298.18744 L824.83964,299.639846 L838.58924,314.163913 L839.9642,315.61632 L838.511793,316.991279 L823.987726,330.740879 L822.53532,332.115839 L821.16036,330.663432 L807.41076,316.139366 L806.0358,314.686959 L807.488207,313.311999 L813.283166,307.824765 C812.67656,307.198106 812.070695,306.574896 811.46557,305.955135 C810.693909,305.16481 810.709038,303.898571 811.499363,303.12691 C812.289688,302.355249 813.555927,302.370379 814.327588,303.160703 C814.947095,303.795194 815.567351,304.433253 816.188357,305.074882 L822.012274,299.5624 L823.46468,298.18744 Z M237.459165,319.3726 C238.199032,320.192764 238.133939,321.45742 237.313774,322.197287 C236.187953,323.212888 235.011332,324.273514 233.603082,325.54232 C233.056104,326.035136 232.674085,326.379279 231.744444,327.216696 C230.814508,328.054356 230.814508,328.054356 229.884032,328.892528 C229.063349,329.63182 227.798739,329.565841 227.059446,328.745158 C226.320154,327.924475 226.386134,326.659865 227.206816,325.920572 C228.137393,325.08231 228.137393,325.08231 229.067299,324.244677 C229.71083,323.664987 230.09189,323.321719 230.446916,323.001873 L230.682338,322.789775 C230.761256,322.718674 230.841483,322.646392 230.925614,322.570592 C232.333302,321.302293 233.509342,320.24219 234.634477,319.227209 C235.454641,318.487342 236.719297,318.552435 237.459165,319.3726 Z M823.31,303.842 L817.71931,309.137214 C817.661492,309.211178 817.597762,309.281963 817.528131,309.34892 C817.448636,309.425363 817.364456,309.493926 817.276558,309.554629 L811.69,314.841 L822.69,326.461 L834.309,315.461 L823.31,303.842 Z M544.89864,309.731744 C545.749601,310.435973 545.868551,311.696704 545.164322,312.547666 C543.10493,315.03615 540.999585,317.602172 538.829869,320.26703 C538.132461,321.12359 536.87272,321.252609 536.01616,320.555201 C535.159599,319.857793 535.030581,318.598053 535.727989,317.741492 C537.904247,315.068599 540.016325,312.494371 542.082718,309.997427 C542.786948,309.146465 544.047678,309.027515 544.89864,309.731744 Z M252.266689,305.906126 C253.013064,306.720373 252.958043,307.985507 252.143796,308.731882 C249.810473,310.87071 247.373882,313.091542 244.747018,315.474917 C243.928977,316.217132 242.66414,316.155663 241.921925,315.337622 C241.17971,314.519581 241.241179,313.254744 242.05922,312.512529 C244.681294,310.1335 247.112924,307.91719 249.440933,305.783233 C250.25518,305.036858 251.520314,305.091879 252.266689,305.906126 Z M557.849964,294.476842 C558.685081,295.19979 558.776011,296.462851 558.053063,297.297968 C555.930112,299.750302 553.772088,302.275512 551.56971,304.883243 C550.857007,305.72712 549.59515,305.833458 548.751273,305.120756 C547.907396,304.408053 547.801058,303.146196 548.51376,302.302319 C550.726414,299.682421 552.894988,297.144866 555.028838,294.67994 C555.751787,293.844824 557.014848,293.753893 557.849964,294.476842 Z M266.874578,292.256391 C267.634934,293.057598 267.601818,294.323495 266.800611,295.083851 C264.453263,297.311515 262.026966,299.590023 259.497066,301.943846 C258.688383,302.696246 257.422876,302.650619 256.670476,301.841936 C255.918076,301.033253 255.963702,299.767746 256.772385,299.015346 C259.292915,296.67024 261.709642,294.40072 264.047118,292.182424 C264.848325,291.422068 266.114222,291.455184 266.874578,292.256391 Z M800.048182,289.041566 C802.437019,291.317379 804.837401,293.648292 807.249333,296.034305 C808.03459,296.811123 808.041431,298.077434 807.264613,298.862691 C806.487795,299.647947 805.221483,299.654788 804.436227,298.87797 C802.042013,296.509486 799.659634,294.196054 797.289097,291.937676 C796.489358,291.175776 796.458684,289.909818 797.220584,289.110079 C797.982485,288.31034 799.248443,288.279666 800.048182,289.041566 Z M571.215955,279.598822 C572.027345,280.348302 572.077532,281.613637 571.328052,282.425027 C569.126841,284.808063 566.896141,287.267643 564.630162,289.808826 C563.895031,290.633239 562.630771,290.705616 561.806358,289.970485 C560.981945,289.235354 560.909568,287.971094 561.644699,287.146682 C563.925952,284.58837 566.172343,282.111489 568.38975,279.710918 C569.139231,278.899528 570.404566,278.849341 571.215955,279.598822 Z M281.150972,278.275297 C281.933231,279.055133 281.935196,280.321462 281.15536,281.103721 C278.85122,283.415021 276.476394,285.759595 274.019832,288.14979 C273.228163,288.920071 271.961951,288.902733 271.19167,288.111064 C270.421389,287.319395 270.438727,286.053183 271.230396,285.282902 C273.6727,282.90658 276.033091,280.576257 278.322548,278.279685 C279.102384,277.497426 280.368713,277.495461 281.150972,278.275297 Z M785.21485,275.488559 C787.697903,277.658444 790.193902,279.890315 792.702859,282.18417 C793.518071,282.929491 793.574728,284.194553 792.829407,285.009765 C792.084086,285.824977 790.819024,285.881634 790.003813,285.136313 C787.516779,282.862501 785.043087,280.650577 782.582747,278.50054 C781.751011,277.773705 781.665972,276.510233 782.392808,275.678498 C783.119643,274.846762 784.383115,274.761724 785.21485,275.488559 Z M585.164899,265.266531 C585.94122,266.052279 585.933578,267.318586 585.14783,268.094907 C582.846121,270.369002 580.517678,272.729516 578.158388,275.179132 C577.392145,275.974711 576.126038,275.998492 575.33046,275.232249 C574.534881,274.466006 574.5111,273.1999 575.277342,272.404321 C577.659171,269.931304 580.010818,267.547265 582.336523,265.249462 C583.122271,264.473142 584.388578,264.480783 585.164899,265.266531 Z M294.958236,263.780967 C295.770789,264.529186 295.822942,265.794442 295.074723,266.606995 C292.852393,269.020407 290.560022,271.455177 288.191727,273.919166 C287.426295,274.715526 286.160213,274.740598 285.363854,273.975166 C284.567494,273.209735 284.542422,271.943653 285.307854,271.147293 C287.656722,268.703517 289.929561,266.289492 292.132208,263.897455 C292.880427,263.084902 294.145683,263.032748 294.958236,263.780967 Z M769.740079,262.636221 C772.331467,264.673613 774.937528,266.781542 777.558278,268.960004 C778.407707,269.666081 778.523917,270.927067 777.817841,271.776496 C777.111764,272.625925 775.850778,272.742136 775.001349,272.036059 C772.408279,269.880606 769.83043,267.795496 767.267816,265.780727 C766.399485,265.09803 766.248998,263.840674 766.931695,262.972342 C767.614391,262.104011 768.871748,261.953524 769.740079,262.636221 Z M599.907566,251.743065 C600.631168,252.577614 600.541228,253.840746 599.706679,254.564349 C597.272504,256.674919 594.812365,258.888598 592.323048,261.206537 C591.514669,261.959263 590.249143,261.914147 589.496416,261.105768 C588.74369,260.297388 588.788806,259.031862 589.597185,258.279136 C592.120461,255.929577 594.615689,253.684325 597.086282,251.542178 C597.920831,250.818575 599.183963,250.908515 599.907566,251.743065 Z M753.531431,250.680981 C756.246173,252.548055 758.977718,254.496339 761.726089,256.525824 C762.614654,257.181968 762.803068,258.434203 762.146924,259.322768 C761.490779,260.211333 760.238544,260.399747 759.349979,259.743603 C756.63732,257.740489 753.942236,255.818211 751.264748,253.976759 C750.354644,253.350831 750.124274,252.105632 750.750201,251.195528 C751.376128,250.285425 752.621327,250.055054 753.531431,250.680981 Z M308.056125,248.647535 C308.907422,249.351358 309.026974,250.612033 308.323151,251.46333 C306.224203,254.002076 304.05163,256.552675 301.802127,259.120865 C301.074335,259.951763 299.810767,260.035347 298.979868,259.307555 C298.14897,258.579763 298.065386,257.316194 298.793178,256.485296 C301.018016,253.945265 303.165973,251.423565 305.240331,248.914561 C305.944154,248.063264 307.204828,247.943712 308.056125,248.647535 Z M736.531906,239.924429 C739.388082,241.570354 742.263735,243.311039 745.158895,245.146461 C746.091791,245.737881 746.368611,246.973584 745.77719,247.906481 C745.18577,248.839377 743.950067,249.116197 743.01717,248.524776 C740.169107,246.719212 737.341613,245.007678 734.534717,243.390152 C733.577684,242.838643 733.248942,241.615729 733.80045,240.658696 C734.351958,239.701663 735.574873,239.37292 736.531906,239.924429 Z M615.686292,239.481899 C616.327798,240.38109 616.118902,241.630071 615.219711,242.271577 C612.614878,244.12993 609.983095,246.116931 607.321681,248.232495 C606.457011,248.919823 605.198868,248.77606 604.51154,247.91139 C603.824212,247.04672 603.967976,245.788577 604.832646,245.101249 C607.547238,242.943413 610.23422,240.914737 612.896614,239.015318 C613.795805,238.373813 615.044787,238.582708 615.686292,239.481899 Z M320.181954,232.723546 C321.079789,233.366949 321.286046,234.616369 320.642644,235.514203 C318.716241,238.202396 316.709867,240.893963 314.621753,243.593476 C313.945936,244.467172 312.689807,244.627584 311.816111,243.951767 C310.942415,243.27595 310.782002,242.019821 311.457819,241.146125 C313.516466,238.484708 315.493699,235.832234 317.391297,233.184236 C318.0347,232.286401 319.28412,232.080144 320.181954,232.723546 Z M718.540472,230.69457 C721.554178,232.044254 724.590712,233.505851 727.650107,235.07931 C728.63238,235.584497 729.019135,236.790321 728.513948,237.772594 C728.008761,238.754867 726.802937,239.141622 725.820664,238.636435 C722.824603,237.095549 719.852887,235.665151 716.905548,234.34519 C715.897457,233.893718 715.446229,232.710509 715.8977,231.702418 C716.349172,230.694327 717.532382,230.243098 718.540472,230.69457 Z M632.841602,229.216603 C633.348958,230.197757 632.964868,231.404433 631.983714,231.911789 C629.164234,233.369744 626.314893,234.994525 623.433337,236.784849 C622.495109,237.367774 621.261971,237.079744 620.679045,236.141516 C620.09612,235.203288 620.38415,233.970149 621.322378,233.387224 C624.291285,231.54263 627.231669,229.865933 630.146416,228.358715 C631.127571,227.851359 632.334246,228.235449 632.841602,229.216603 Z M699.577267,223.589036 C702.751185,224.538296 705.952005,225.62022 709.179732,226.834704 C710.213542,227.223692 710.736274,228.377097 710.347286,229.410906 C709.958299,230.444716 708.804894,230.967448 707.771084,230.57846 C704.628935,229.396176 701.515606,228.343826 698.431104,227.421308 C697.372852,227.104804 696.771545,225.990344 697.088049,224.932091 C697.404553,223.873838 698.519014,223.272532 699.577267,223.589036 Z M330.988827,215.919726 C331.938744,216.483402 332.251854,217.710413 331.688177,218.66033 C329.994382,221.514739 328.21271,224.364508 326.342437,227.213466 C325.736262,228.136843 324.496314,228.393986 323.572937,227.78781 C322.64956,227.181635 322.392417,225.941688 322.998592,225.018311 C324.836035,222.219364 326.585652,219.420866 328.248223,216.619075 C328.8119,215.669158 330.03891,215.356049 330.988827,215.919726 Z M651.580639,222.288027 C651.864158,223.35559 651.228564,224.450858 650.161001,224.734377 C647.109429,225.5448 644.023903,226.574023 640.902071,227.819532 C639.876139,228.228846 638.712643,227.728977 638.303329,226.703046 C637.894016,225.677114 638.393884,224.513617 639.419816,224.104304 C642.687535,222.800591 645.924829,221.720743 649.134289,220.868389 C650.201852,220.58487 651.29712,221.220464 651.580639,222.288027 Z M679.704464,219.335263 C683.015995,219.751799 686.359177,220.324055 689.733921,221.051881 C690.813664,221.284748 691.500194,222.348829 691.267327,223.428573 C691.03446,224.508317 689.970379,225.194846 688.890635,224.961979 C685.628709,224.258484 682.400282,223.705871 679.205264,223.303991 C678.10933,223.16614 677.33265,222.165961 677.470501,221.070027 C677.608351,219.974093 678.608531,219.197413 679.704464,219.335263 Z M666.585894,218.500001 C667.572676,218.5 668.553137,218.514272 669.537903,218.542932 C670.642005,218.575065 671.511007,219.496166 671.478874,220.600268 C671.446741,221.70437 670.52564,222.573372 669.421538,222.541239 C668.475541,222.513707 667.533873,222.5 666.586252,222.500001 C664.312619,222.500406 662.021401,222.63514 659.711513,222.902805 C658.614285,223.029949 657.621736,222.243541 657.494591,221.146314 C657.367447,220.049086 658.153855,219.056537 659.251082,218.929393 C661.712312,218.644191 664.156972,218.500433 666.585894,218.500001 Z M340.122264,198.143573 C341.125519,198.605691 341.564198,199.79361 341.10208,200.796866 C339.705636,203.828535 338.212727,206.84793 336.623383,209.85834 C336.107685,210.835135 334.89778,211.208928 333.920985,210.69323 C332.944189,210.177531 332.570396,208.967626 333.086095,207.990831 C334.642052,205.043659 336.102988,202.088928 337.468972,199.123388 C337.93109,198.120133 339.119009,197.681455 340.122264,198.143573 Z M347.194792,179.416425 C348.245959,179.755722 348.823043,180.882916 348.483746,181.934082 C347.45195,185.130658 346.316339,188.308085 345.077476,191.469176 C344.674431,192.497587 343.514007,193.004546 342.485596,192.601501 C341.457186,192.198457 340.950226,191.038033 341.353271,190.009622 C342.562498,186.924152 343.670602,183.823688 344.677135,180.705379 C345.016432,179.654212 346.143625,179.077128 347.194792,179.416425 Z M351.857384,159.979649 C352.943414,160.181171 353.66045,161.224939 353.458928,162.31097 C352.842809,165.631319 352.118943,168.927137 351.288204,172.200764 C351.016512,173.271398 349.928342,173.919069 348.857708,173.647377 C347.787074,173.375685 347.139403,172.287515 347.411095,171.216881 C348.220564,168.027069 348.925819,164.815991 349.526063,161.581194 C349.727585,160.495163 350.771353,159.778127 351.857384,159.979649 Z M353.80944,140.083632 L353.958782,140.086142 C355.061769,140.145252 355.907998,141.087318 355.848887,142.190305 C355.667248,145.579649 355.378233,148.940992 354.982833,152.276237 C354.852794,153.373125 353.858174,154.156912 352.761286,154.026874 C351.664397,153.896835 350.880611,152.902215 351.010649,151.805327 C351.39593,148.555439 351.67758,145.279758 351.854619,141.976247 C351.908356,140.973532 352.691808,140.183013 353.6625,140.09198 L353.80944,140.083632 Z M355.66563,121.935332 C355.717757,122.623254 355.763226,123.306002 355.802075,123.983111 C355.957734,126.697157 356.047469,129.390417 356.071872,132.066023 C356.081946,133.170546 355.194719,134.074106 354.090196,134.08418 C352.985672,134.094254 352.082112,133.207027 352.072038,132.102503 C352.048222,129.49126 351.960626,126.862201 351.80864,124.21219 C351.771195,123.559546 351.727349,122.901168 351.677065,122.237562 C351.593606,121.13615 352.41882,120.175622 353.520232,120.092164 C354.621644,120.008705 355.582172,120.83392 355.66563,121.935332 Z M352.479972,101.879714 C353.280022,105.220588 353.942483,108.547829 354.468459,111.835476 C354.642956,112.926176 353.900226,113.951819 352.809527,114.126316 C351.718828,114.300812 350.693184,113.558083 350.518688,112.467384 C350.008742,109.279935 349.366182,106.052649 348.589958,102.811268 C348.332717,101.73707 348.99499,100.657726 350.069188,100.400484 C351.143386,100.143242 352.22273,100.805516 352.479972,101.879714 Z M346.303486,82.5679344 C347.577384,85.7187018 348.726807,88.9043824 349.752609,92.112602 C350.089009,93.1646995 349.508821,94.2902987 348.456724,94.6266983 C347.404626,94.9630979 346.279027,94.3829101 345.942627,93.3308126 C344.946954,90.2168211 343.831365,87.1249141 342.595121,84.0672771 C342.181089,83.0432404 342.675595,81.8774553 343.699632,81.4634232 C344.723669,81.0493912 345.889454,81.5438977 346.303486,82.5679344 Z M6.15178155,53.4875334 L6.95715871,55.3182075 L10.181,62.646 L10.5851076,62.4690941 C12.8890324,61.4639414 15.1759754,60.4705527 17.4459369,59.4889277 C18.4597705,59.0505042 19.6370575,59.5169663 20.075481,60.5308 C20.5139044,61.5446336 20.0474423,62.7219206 19.0336087,63.1603441 C16.6388699,64.1959279 14.225144,65.2446509 11.7924314,66.3065129 L15.0109304,73.6249484 L15.8163075,75.4556225 L13.9856334,76.2609997 L-4.32110746,84.3147713 L-6.15178155,85.1201485 L-6.95715871,83.2894744 L-15.0109304,64.9827335 L-15.8163075,63.1520594 L-13.9856334,62.3466822 L4.32110746,54.2929106 L6.15178155,53.4875334 Z M4.101,58.759 L-10.543,65.202 L-4.1,79.848 L10.544,73.404 L7.55342796,66.6066855 C7.42992661,66.4613901 7.32528755,66.2958393 7.24491682,66.1121484 C7.1659587,65.9316861 7.11575542,65.7459024 7.09230132,65.5599234 L4.101,58.759 Z M337.272128,64.3727142 C339.011783,67.2853475 340.632444,70.2599266 342.135037,73.2889566 C342.625897,74.2784665 342.221662,75.4785437 341.232152,75.969404 C340.242642,76.4602643 339.042564,76.0560288 338.551704,75.0665188 C337.094947,72.1298869 335.524007,69.2465677 333.838041,66.4238225 C333.271643,65.4755255 333.581233,64.2476227 334.52953,63.6812248 C335.477827,63.1148268 336.70573,63.4244172 337.272128,64.3727142 Z M38.4801724,52.6935318 C38.9089565,53.7114798 38.4313448,54.8842878 37.4133968,55.3130718 C34.3826794,56.5896826 31.3188579,57.889199 28.2219339,59.2116208 C27.2061014,59.6453929 26.0309648,59.1735397 25.5971927,58.1577072 C25.1634207,57.1418747 25.6352739,55.9667381 26.6511064,55.5329661 C29.7540101,54.2079909 32.8238516,52.905921 35.8606324,51.6267562 C36.8785803,51.1979722 38.0513884,51.6755839 38.4801724,52.6935318 Z M325.48537,47.806565 C327.672511,50.4073256 329.74499,53.0870614 331.703724,55.8406084 C332.343991,56.7406819 332.133376,57.9893743 331.233302,58.629641 C330.333229,59.2699077 329.084536,59.0592927 328.44427,58.1592192 C326.547734,55.4931095 324.54129,52.8987576 322.424001,50.3810599 C321.713074,49.5356864 321.822065,48.2740555 322.667438,47.5631283 C323.512812,46.8522012 324.774442,46.9611915 325.48537,47.806565 Z M56.9690049,45.0455807 C57.3865861,46.0681753 56.8961258,47.2356685 55.8735312,47.6532496 C52.8309544,48.8956997 49.751756,50.1634859 46.6359376,51.4566079 C45.615739,51.8800092 44.4454702,51.3962093 44.0220689,50.3760107 C43.5986677,49.3558121 44.0824676,48.1855432 45.1026662,47.762142 C48.2254565,46.4661265 51.3116791,45.1954482 54.361336,43.950107 C55.3839306,43.5325258 56.5514237,44.0229861 56.9690049,45.0455807 Z M75.5287249,37.6296255 C75.9330958,38.6575155 75.4276335,39.8185924 74.3997435,40.2229633 C71.347565,41.4236869 68.2545268,42.6526734 65.1206314,43.9099222 C64.0954812,44.3211896 62.9310347,43.8235392 62.5197673,42.798389 C62.1085,41.7732388 62.6061503,40.6087923 63.6313005,40.197525 C66.7734501,38.9369647 69.8748114,37.7046712 72.9353871,36.500644 C73.9632772,36.0962732 75.1243541,36.6017354 75.5287249,37.6296255 Z M311.198848,33.3817776 C313.787234,35.6027474 316.266808,37.9122864 318.638392,40.3066335 C319.415701,41.0914036 319.409653,42.3577191 318.624883,43.1350283 C317.840112,43.9123376 316.573797,43.9062894 315.796488,43.1215193 C313.500709,40.8037049 311.100228,38.5678352 308.594092,36.41744 C307.755817,35.6981565 307.659355,34.4355058 308.378639,33.5972308 C309.097922,32.7589558 310.360573,32.6624941 311.198848,33.3817776 Z M94.2194028,30.4707729 C94.6078478,31.5047866 94.0845109,32.6579172 93.0504972,33.0463621 C89.9865571,34.1973838 86.8763773,35.3803807 83.7199621,36.5953524 C82.6891227,36.9921445 81.5317987,36.4781477 81.1350066,35.4473083 C80.7382145,34.416469 81.2522113,33.259145 82.2830507,32.8623528 C85.4494453,31.6435398 88.5696982,30.4567115 91.6438136,29.3018674 C92.6778273,28.9134224 93.8309579,29.4367593 94.2194028,30.4707729 Z M294.79829,21.422279 C297.708558,23.2170716 300.518547,25.1031431 303.228954,27.0777443 C304.121727,27.7281522 304.318202,28.9791474 303.667794,29.8719202 C303.017387,30.7646931 301.766391,30.9611687 300.873619,30.3107608 C298.246179,28.3966039 295.521476,26.5677766 292.698627,24.8268958 C291.758468,24.2470899 291.466344,23.0149149 292.04615,22.0747559 C292.625956,21.1345969 293.858131,20.8424731 294.79829,21.422279 Z M113.006163,23.648211 C113.374983,24.6893861 112.829932,25.832413 111.788757,26.2012331 C108.711985,27.2911319 105.582004,28.4178106 102.398821,29.5812685 C101.361376,29.9604558 100.212969,29.4268332 99.833782,28.3893888 C99.4545946,27.3519445 99.9882173,26.2035376 101.025662,25.8243503 C104.221222,24.6563685 107.363713,23.5251868 110.453141,22.4308047 C111.494316,22.0619846 112.637343,22.6070359 113.006163,23.648211 Z M131.954109,17.2303176 C132.297901,18.2800225 131.725646,19.4096754 130.675941,19.7534678 C127.585469,20.7656384 124.432397,21.8210538 121.216736,22.9197136 C120.171489,23.2768315 119.034648,22.718993 118.67753,21.6737464 C118.320412,20.6284997 118.87825,19.4916586 119.923497,19.1345406 C123.155038,18.0304556 126.324187,16.9696587 129.430958,15.9521497 C130.480663,15.6083573 131.610316,16.1806126 131.954109,17.2303176 Z M276.79108,12.0578193 C279.932069,13.4196378 282.983054,14.8701018 285.944617,16.4072159 C286.925002,16.9160567 287.307264,18.1233127 286.798423,19.1036978 C286.289582,20.0840829 285.082326,20.466345 284.101941,19.9575043 C281.22298,18.4632621 278.255894,17.0526847 275.199939,15.7277334 C274.18652,15.2883518 273.721171,14.1106244 274.160553,13.0972056 C274.599934,12.0837869 275.777661,11.6184378 276.79108,12.0578193 Z M151.072706,11.3506382 C151.3832,12.41067 150.775579,13.5217005 149.715548,13.8321943 C146.611203,14.7414876 143.430961,15.7031551 140.174845,16.7171977 C139.120234,17.0456322 137.999054,16.4569497 137.670619,15.4023386 C137.342185,14.3477274 137.930868,13.2265475 138.985479,12.8981131 C142.262919,11.8774295 145.464801,10.9092181 148.59115,9.99347966 C149.651182,9.68298585 150.762212,10.2906064 151.072706,11.3506382 Z M257.75183,5.22412562 C261.03908,6.18039143 264.246952,7.21943006 267.375925,8.33978985 C268.415842,8.7121424 268.95701,9.85701307 268.584657,10.8969301 C268.212305,11.9368471 267.067434,12.478015 266.027517,12.1056624 C262.975089,11.0127105 259.844294,9.99863695 256.634539,9.06491466 C255.573935,8.75638322 254.964259,7.64647917 255.27279,6.58587456 C255.581322,5.52526995 256.691226,4.91559418 257.75183,5.22412562 Z M170.399261,6.21334284 C170.662651,7.28604946 170.00657,8.36916978 168.933864,8.63255979 C165.818075,9.39760373 162.606222,10.2288065 159.298356,11.1261743 C158.232318,11.4153726 157.133681,10.785619 156.844483,9.71958048 C156.555285,8.65354194 157.185038,7.55490548 158.251077,7.26570728 C161.589506,6.36004811 164.832478,5.52079207 167.980044,4.7479455 C169.052751,4.48455549 170.135871,5.14063623 170.399261,6.21334284 Z M238.046854,0.661705581 C241.414495,1.2566259 244.712744,1.92705746 247.941994,2.67193153 C249.018301,2.92019767 249.689562,3.99397671 249.441295,5.07028415 C249.193029,6.14659159 248.11925,6.8178517 247.042943,6.56958556 C243.88137,5.84032228 240.650873,5.18366256 237.350997,4.60071351 C236.26327,4.408558 235.537266,3.37100822 235.729421,2.28328121 C235.921577,1.19555421 236.959127,0.469550066 238.046854,0.661705581 Z M189.990506,2.18335069 C190.180716,3.2714196 189.452858,4.30766937 188.364789,4.49787932 C185.247997,5.0427389 182.001203,5.67674213 178.624545,6.39992542 C177.544469,6.63124669 176.481371,5.943195 176.25005,4.86311896 C176.018729,3.78304292 176.70678,2.71994535 177.786856,2.48862409 C181.211933,1.75507098 184.508261,1.11139523 187.675978,0.557633238 C188.764047,0.367423286 189.800296,1.09528178 189.990506,2.18335069 Z M217.849348,-1.87632456 L217.998684,-1.87347985 C218.930873,-1.82142604 219.840822,-1.7532897 220.728559,-1.6690325 C223.206542,-1.43384132 225.651776,-1.16192929 228.064389,-0.853616963 C229.160048,-0.713600588 229.93475,0.288112428 229.794733,1.38377168 C229.654717,2.47943093 228.653004,3.25413255 227.557345,3.11411617 C225.187843,2.81131302 222.785644,2.54418652 220.350608,2.31307162 C219.515069,2.23376866 218.656747,2.16949813 217.77567,2.12029839 C216.672818,2.05871469 215.828704,1.11475353 215.890288,0.011902121 C215.946273,-0.990690068 216.731496,-1.7794499 217.702389,-1.86830616 L217.849348,-1.87632456 Z M209.87255,0.0424299213 C209.929961,1.14550637 209.082283,2.08626807 207.979206,2.14367998 C204.903334,2.3037702 201.629926,2.5976853 198.159466,3.02569331 C197.063202,3.16089434 196.064902,2.38179897 195.929701,1.28553511 C195.7945,0.189271242 196.573596,-0.809028299 197.66986,-0.944229326 C201.231186,-1.38344384 204.598172,-1.68576114 207.771299,-1.8509132 C208.874376,-1.90832512 209.815138,-1.06064653 209.87255,0.0424299213 Z" fill="#414141" fill-rule="nonzero"></path>
                        <path d="M219.385873,483 L264.436912,483 L255.997279,440.021658" id="Path-2" stroke="#414141" stroke-width="5" stroke-linecap="round" stroke-linejoin="round" stroke-dasharray="10"></path>
                    </g>
                </g>
            </g>
        </g>
    </g>
</svg>