
<svg version="1.0" xmlns="http://www.w3.org/2000/svg"
 width="777.000000pt" height="1346.000000pt" viewBox="0 0 777.000000 1346.000000"
 preserveAspectRatio="xMidYMid meet">
<metadata>
Created by potrace 1.16, written by Peter Selinger 2001-2019
</metadata>
<g transform="translate(0.000000,1346.000000) scale(0.100000,-0.100000)"
fill="#000000" stroke="none">
<path d="M3006 13374 c-20 -19 -21 -68 -2 -87 15 -15 305 -117 332 -117 24 0
54 38 54 70 0 39 -16 48 -179 104 -143 49 -181 55 -205 30z"/>
<path d="M3560 13180 c-20 -20 -26 -55 -12 -77 9 -15 84 -46 231 -97 91 -32
106 -35 130 -23 33 16 42 74 14 99 -21 18 -293 118 -323 118 -11 0 -29 -9 -40
-20z"/>
<path d="M4110 12980 c-23 -23 -26 -58 -7 -83 14 -19 295 -127 331 -127 29 0
56 29 56 61 0 30 -9 43 -38 58 -43 23 -284 111 -303 111 -10 0 -28 -9 -39 -20z"/>
<path d="M4657 12772 c-20 -22 -22 -62 -4 -85 19 -25 292 -129 330 -125 45 4
68 47 47 84 -12 21 -47 39 -164 85 -81 33 -158 59 -171 59 -12 0 -29 -8 -38
-18z"/>
<path d="M5196 12548 c-20 -29 -20 -57 0 -79 8 -9 82 -45 164 -79 161 -67 191
-71 212 -24 8 16 8 34 2 51 -7 22 -33 37 -159 90 -163 69 -196 75 -219 41z"/>
<path d="M5740 12320 c-23 -23 -26 -62 -6 -82 7 -8 82 -45 166 -83 145 -66
153 -68 179 -54 33 19 41 77 14 101 -25 22 -287 138 -312 138 -12 0 -30 -9
-41 -20z"/>
<path d="M6264 12064 c-13 -19 -15 -32 -8 -52 7 -22 39 -42 164 -105 144 -73
157 -78 183 -66 15 7 30 23 34 36 12 49 -10 69 -157 143 -154 77 -190 85 -216
44z"/>
<path d="M6792 11804 c-27 -19 -30 -67 -4 -90 37 -35 274 -174 295 -174 43 0
62 27 58 82 -2 27 -268 198 -308 198 -10 0 -29 -7 -41 -16z"/>
<path d="M7290 11483 c-8 -3 -21 -12 -27 -21 -26 -32 -14 -61 57 -138 39 -42
82 -99 97 -127 29 -59 38 -67 74 -67 33 0 59 29 59 66 0 55 -108 211 -184 266
-39 28 -49 31 -76 21z"/>
<path d="M7552 10973 c-29 -11 -33 -53 -13 -127 11 -39 27 -109 37 -156 18
-93 34 -120 71 -120 47 0 63 17 63 65 0 48 -31 199 -56 278 -19 59 -54 79
-102 60z"/>
<path d="M7626 10378 c-12 -16 -16 -47 -16 -113 0 -49 -5 -121 -10 -158 -11
-74 -4 -99 31 -118 25 -13 76 4 84 30 8 28 25 203 25 271 0 82 -17 110 -65
110 -24 0 -39 -7 -49 -22z"/>
<path d="M7551 9806 c-6 -7 -20 -40 -31 -72 -11 -32 -37 -100 -57 -151 -41
-104 -40 -134 6 -153 43 -18 68 1 103 77 34 76 88 236 88 262 0 42 -82 70
-109 37z"/>
<path d="M7269 9213 c-29 -43 -71 -103 -94 -133 -54 -70 -61 -94 -41 -125 12
-19 25 -25 50 -25 28 0 41 8 71 43 60 69 165 230 165 252 0 37 -28 65 -65 65
-32 0 -39 -6 -86 -77z"/>
<path d="M6845 8718 c-99 -92 -121 -117 -123 -144 -4 -39 19 -64 59 -64 22 0
48 17 106 69 105 92 173 166 173 188 0 35 -29 63 -63 62 -26 0 -53 -19 -152
-111z"/>
<path d="M6392 8374 c-157 -94 -177 -116 -151 -162 27 -49 63 -42 199 40 142
85 170 108 170 142 0 24 -40 66 -64 66 -6 0 -75 -39 -154 -86z"/>
<path d="M1693 8220 c-42 -18 -55 -68 -24 -99 16 -16 35 -18 193 -17 130 1
180 5 192 15 20 17 21 61 2 87 -13 17 -29 19 -178 21 -90 1 -173 -2 -185 -7z"/>
<path d="M2246 8148 c-21 -29 -20 -51 2 -76 13 -16 52 -28 165 -52 168 -34
199 -36 217 -14 18 20 17 71 -1 89 -15 15 -285 75 -337 75 -21 0 -36 -7 -46
-22z"/>
<path d="M5930 8137 c-41 -18 -104 -43 -140 -56 -72 -27 -90 -42 -90 -81 0
-34 29 -60 66 -59 16 0 92 26 169 57 111 45 142 63 155 85 13 24 13 30 0 55
-22 39 -67 39 -160 -1z"/>
<path d="M1380 8153 c-68 -25 -228 -97 -251 -114 -37 -26 -41 -80 -7 -103 31
-22 39 -21 126 20 42 20 110 49 151 65 41 16 78 34 83 41 13 21 9 66 -8 82
-15 16 -64 20 -94 9z"/>
<path d="M2822 8038 c-17 -17 -15 -74 2 -91 21 -21 330 -79 360 -67 42 15 50
80 14 104 -25 16 -275 66 -329 66 -19 0 -40 -5 -47 -12z"/>
<path d="M336 7999 c-31 -24 -33 -58 -12 -263 12 -113 16 -132 36 -148 32 -26
76 -23 105 7 29 28 29 17 10 220 -13 151 -16 161 -40 183 -32 28 -65 28 -99 1z"/>
<path d="M5311 7943 c-159 -35 -180 -45 -181 -90 0 -28 33 -63 60 -63 41 0
305 61 327 75 45 30 20 117 -33 114 -10 -1 -88 -17 -173 -36z"/>
<path d="M3400 7930 c-26 -26 -25 -56 3 -83 18 -19 48 -26 184 -45 177 -25
197 -23 209 24 9 34 -10 72 -38 79 -32 7 -299 45 -320 45 -10 0 -27 -9 -38
-20z"/>
<path d="M818 7831 c-95 -76 -188 -175 -188 -198 0 -34 29 -63 64 -63 24 0 41
9 67 36 18 20 70 66 114 102 44 37 85 74 92 82 30 37 -2 100 -51 100 -15 0
-53 -23 -98 -59z"/>
<path d="M3987 7866 c-35 -36 -29 -83 13 -106 11 -6 94 -14 185 -17 183 -7
195 -4 195 53 0 52 -17 61 -132 68 -57 3 -135 9 -174 12 -57 5 -74 3 -87 -10z"/>
<path d="M4724 7866 c-152 -12 -174 -20 -174 -65 1 -62 27 -71 190 -61 74 5
147 9 163 10 15 0 36 9 47 20 43 43 10 111 -52 108 -18 0 -96 -6 -174 -12z"/>
<path d="M992 7550 c-74 -22 -88 -31 -97 -67 -9 -36 12 -79 45 -93 22 -9 43
-7 111 11 46 12 92 29 101 38 29 27 33 72 8 104 -26 33 -73 35 -168 7z"/>
<path d="M455 7450 c-10 -11 -28 -20 -41 -20 -29 0 -54 -35 -54 -78 0 -21 -15
-58 -40 -101 -45 -76 -49 -102 -19 -132 16 -16 28 -20 52 -15 17 3 31 7 32 9
1 1 21 32 44 68 l41 67 83 22 c207 54 208 55 210 114 2 69 -47 90 -149 65 -38
-10 -47 -9 -63 5 -24 22 -74 20 -96 -4z"/>
<path d="M173 6948 c-16 -21 -61 -157 -83 -247 -24 -105 -15 -134 41 -139 48
-4 62 15 88 121 12 48 30 111 41 140 36 93 23 137 -39 137 -21 0 -43 -6 -48
-12z"/>
<path d="M65 6370 c-16 -17 -17 -31 -12 -107 11 -148 52 -269 94 -279 34 -9
71 10 79 39 3 14 -4 55 -16 93 -11 38 -25 109 -29 158 -7 68 -13 93 -27 103
-26 19 -68 16 -89 -7z"/>
<path d="M260 5830 c-11 -11 -20 -31 -20 -44 0 -28 97 -162 176 -243 55 -58
82 -65 114 -33 34 34 25 67 -33 134 -30 34 -75 90 -101 126 -27 36 -53 68 -60
72 -21 14 -56 8 -76 -12z"/>
<path d="M646 5388 c-34 -49 -20 -68 149 -204 109 -88 134 -96 170 -59 33 32
28 70 -13 100 -15 11 -72 57 -127 103 -110 91 -149 103 -179 60z"/>
<path d="M1117 5042 c-22 -24 -22 -67 1 -90 36 -36 269 -172 295 -172 35 0 57
25 57 66 0 28 -6 38 -37 57 -267 169 -283 176 -316 139z"/>
<path d="M1621 4747 c-11 -14 -15 -38 -13 -69 1 -10 21 -28 45 -40 115 -60
264 -128 283 -128 28 0 57 33 57 65 0 24 -27 65 -44 65 -4 0 -63 27 -132 60
-123 60 -175 72 -196 47z"/>
<path d="M2160 4510 c-23 -23 -26 -58 -7 -84 12 -16 240 -98 312 -112 28 -5
38 -2 60 20 19 20 24 32 19 49 -8 29 -34 57 -50 57 -8 0 -75 20 -151 45 -75
25 -142 45 -150 45 -7 0 -22 -9 -33 -20z"/>
<path d="M2726 4364 c-21 -20 -21 -78 0 -95 9 -8 80 -18 185 -27 160 -14 170
-14 189 3 24 22 27 77 4 96 -10 8 -71 18 -153 26 -181 16 -207 16 -225 -3z"/>
<path d="M3311 4321 c-26 -26 -27 -65 -2 -90 16 -16 40 -20 137 -25 66 -3 140
-8 166 -11 79 -7 122 46 83 102 -13 18 -28 22 -122 27 -60 4 -138 9 -175 12
-58 4 -70 2 -87 -15z"/>
<path d="M3902 4294 c-15 -10 -22 -25 -22 -48 0 -58 16 -64 201 -72 194 -8
209 -4 209 55 0 21 -6 43 -13 50 -14 11 -68 16 -252 26 -81 4 -105 2 -123 -11z"/>
<path d="M4480 4260 c-25 -25 -26 -64 -1 -89 16 -16 42 -20 190 -26 157 -7
174 -6 191 10 26 23 26 67 0 90 -15 14 -47 19 -157 26 -197 12 -201 11 -223
-11z"/>
<path d="M5062 4228 c-16 -16 -15 -83 1 -96 7 -6 89 -18 182 -27 151 -14 170
-14 192 0 32 21 32 79 1 99 -13 8 -76 19 -145 25 -156 14 -216 14 -231 -1z"/>
<path d="M5646 4164 c-21 -21 -20 -67 2 -86 11 -10 71 -24 162 -37 218 -32
230 -29 230 41 0 49 -9 53 -162 78 -150 24 -211 26 -232 4z"/>
<path d="M6221 4066 c-16 -19 -17 -74 -3 -88 10 -10 269 -86 325 -95 38 -7 67
20 67 63 0 44 -18 54 -155 94 -141 40 -215 49 -234 26z"/>
<path d="M6780 3880 c-23 -23 -26 -59 -7 -82 6 -8 47 -34 89 -57 43 -22 103
-59 134 -81 61 -43 93 -49 118 -25 25 25 29 54 11 81 -29 45 -260 184 -305
184 -11 0 -29 -9 -40 -20z"/>
<path d="M7226 3515 c-23 -23 -20 -54 10 -120 25 -53 26 -63 19 -147 -8 -102
-1 -118 51 -118 60 0 79 44 79 182 -1 67 -5 85 -36 145 -32 63 -37 68 -70 71
-24 2 -42 -3 -53 -13z"/>
<path d="M7134 2968 c-11 -13 -38 -48 -61 -78 -22 -30 -61 -79 -86 -109 -69
-81 -62 -144 15 -144 36 0 86 50 182 183 53 73 60 88 57 122 -3 48 -73 64
-107 26z"/>
<path d="M6645 2434 c-103 -96 -125 -121 -125 -144 0 -37 24 -60 63 -60 27 0
52 18 147 105 63 58 119 116 125 131 14 38 -11 78 -52 82 -29 3 -46 -9 -158
-114z"/>
<path d="M6200 2059 c-73 -58 -129 -110 -133 -125 -14 -38 14 -74 58 -74 29 0
56 17 162 103 137 109 155 136 117 178 -35 39 -70 25 -204 -82z"/>
<path d="M5870 1802 c-43 -19 -263 -188 -273 -209 -17 -37 8 -77 51 -81 27 -3
53 12 162 90 135 97 161 128 141 167 -18 34 -50 47 -81 33z"/>
<path d="M5390 1462 c-25 -11 -233 -153 -257 -175 -44 -40 -18 -107 41 -107
26 0 244 138 288 183 25 24 22 59 -5 85 -24 22 -40 26 -67 14z"/>
<path d="M4783 1062 c-67 -43 -131 -86 -142 -96 -25 -23 -27 -68 -5 -90 31
-32 70 -19 202 66 70 45 133 88 140 97 31 38 1 101 -49 101 -13 0 -79 -35
-146 -78z"/>
<path d="M4275 742 c-153 -96 -173 -119 -141 -166 29 -45 64 -36 217 59 131
82 149 98 149 131 0 21 -46 64 -67 64 -10 0 -81 -40 -158 -88z"/>
<path d="M3785 444 c-71 -42 -138 -84 -147 -92 -22 -19 -23 -65 -2 -86 31 -32
74 -19 209 63 146 88 170 114 145 159 -28 49 -60 42 -205 -44z"/>
<path d="M3273 146 c-136 -80 -163 -101 -163 -128 0 -16 9 -18 87 -18 l86 0
96 56 c53 31 99 61 103 68 13 19 9 64 -8 80 -29 30 -74 17 -201 -58z"/>
</g>
</svg>
