<?xml version="1.0" encoding="UTF-8"?>
<svg width="151px" height="151px" viewBox="0 0 151 151" version="1.1" xmlns="http://www.w3.org/2000/svg" xmlns:xlink="http://www.w3.org/1999/xlink">
    <title>link</title>
    <defs>
        <linearGradient x1="4.28757664%" y1="10.7561398%" x2="102.888087%" y2="74.7759352%" id="linearGradient-1">
            <stop stop-color="#00E7F0" offset="0%"></stop>
            <stop stop-color="#1DB6FF" offset="100%"></stop>
        </linearGradient>
    </defs>
    <g id="Page-1" stroke="none" stroke-width="1" fill="none" fill-rule="evenodd">
        <g id="Artboard" transform="translate(-35.000000, -18.000000)" fill="url(#linearGradient-1)" fill-rule="nonzero">
            <g id="link" transform="translate(35.000000, 18.000000)">
                <path d="M85.9312751,107.099121 L54.9854052,138.126269 C44.1801837,148.957784 26.6629554,148.957784 15.8577339,138.126269 L12.8240673,135.08324 C2.03735321,124.243994 2.03735321,106.697095 12.8240673,95.8578491 L40.7378124,67.8721844 C51.5430338,57.0391233 69.0602622,57.0391233 79.8654837,67.8721844 L85.9328172,73.9551505 C86.5296801,74.5690135 87.4087805,74.8133219 88.2339006,74.5968463 C89.0605633,74.3788245 89.705237,73.7309436 89.9226985,72.9036972 C90.1386179,72.0749047 89.8949372,71.1935392 89.2826518,70.5966851 L83.213776,64.5152652 C70.5593594,51.8282449 50.042394,51.8282449 37.3879778,64.5152652 L9.47577498,92.4993838 C-3.15859166,105.194136 -3.15859166,125.746954 9.47577498,138.443252 L12.5094416,141.484735 C25.1638582,154.171755 45.6808235,154.171755 58.3352397,141.484735 L89.2811096,110.457587 C90.1848865,109.526741 90.1756326,108.040791 89.2595178,107.122315 C88.3418605,106.20384 86.8597281,106.193016 85.9312751,107.099121 Z" id="Path"></path>
                <path d="M138.491792,9.51526516 C125.837064,-3.17175505 105.319594,-3.17175505 92.6648662,9.51526516 L61.7166918,40.5408672 C60.812893,41.4717124 60.8236889,42.9592097 61.7398267,43.8776848 C62.6559644,44.7961603 64.1381329,44.8054377 65.0666088,43.8993326 L96.0132406,12.8737309 C106.818728,2.04066984 124.336388,2.04066984 135.141875,12.8737309 L138.175617,15.9152137 C148.962596,26.7544598 148.962596,44.302905 138.175617,55.142151 L110.262726,83.1278157 C99.4587815,93.9608767 81.9395793,93.9608767 71.1340921,83.1278157 L65.0666088,77.0417569 C64.4712738,76.4278939 63.5921518,76.1835858 62.7654687,76.4016076 C61.9403283,76.6196295 61.2956388,77.2659638 61.0781719,78.0947563 C60.8607046,78.9220027 61.1043912,79.8033681 61.7166918,80.4002223 L67.7841751,86.4847348 C80.4389029,99.1717551 100.956373,99.1717551 113.611101,86.4847348 L141.523992,58.4975237 C154.158669,45.8027723 154.158669,25.2499536 141.523992,12.5552022 L138.491792,9.51526516 Z" id="Path"></path>
            </g>
        </g>
    </g>
</svg>