<svg width="775" height="86" viewBox="0 0 775 86" fill="none" xmlns="http://www.w3.org/2000/svg">
<g clip-path="url(#clip0_1_3529)">
<path d="M1.27454 1.7998C0.594506 5.2558 0.108765 9.2878 0.108765 12.7438C0.108765 15.4318 1.37169 16.7758 3.70325 16.7758H18.6641V66.0238C18.6641 67.9438 19.8299 68.9998 22.3557 68.9998H37.5109V16.7758H56.0662V5.4478C56.0662 2.9518 54.9976 1.7998 53.0546 1.7998H1.27454Z" fill="url(#paint0_linear_1_3529)"/>
<path d="M82.0219 69.0001C96.1084 51.6241 108.641 27.5281 116.121 9.00012C116.412 8.32812 116.607 7.56012 116.607 6.79212C116.607 3.81612 114.178 1.80012 109.515 1.80012H98.9257C96.1084 10.3441 92.3196 19.5601 87.7537 28.3921L76.3873 4.87212C74.9301 1.89612 73.6671 1.22412 70.5584 1.22412C66.8668 1.22412 61.8151 3.52812 57.5405 8.32812C63.8552 20.5201 70.947 34.2481 77.3588 46.5361C73.9586 51.8161 70.5584 56.9041 67.4497 60.9361C66.5753 61.9921 66.0896 63.3361 66.0896 64.1041C66.0896 66.6961 68.4211 69.0001 73.0843 69.0001H82.0219Z" fill="url(#paint1_linear_1_3529)"/>
<path d="M118.081 1.7998C117.401 5.2558 116.915 9.2878 116.915 12.7438C116.915 15.4318 118.178 16.7758 120.51 16.7758H135.471V66.0238C135.471 67.9438 136.636 68.9998 139.162 68.9998H154.317V16.7758H172.873V5.4478C172.873 2.9518 171.804 1.7998 169.861 1.7998H118.081Z" fill="url(#paint2_linear_1_3529)"/>
<path d="M191.445 31.9439C188.142 41.16 184.062 48.456 180.759 52.68C179.107 54.888 177.262 55.5599 174.639 55.5599H173.084C172.307 57.5759 171.821 60.0719 171.821 62.8559C171.821 66.6959 177.067 70.1519 183.188 70.1519C190.085 70.1519 194.457 66.312 198.634 59.688C201.452 55.2719 203.88 49.5119 205.92 42.6959C207.669 43.8479 209.515 45.096 211.264 46.152V66.0239C211.264 67.9439 212.429 68.9999 214.955 68.9999H230.11V46.152C231.859 45.096 233.705 43.8479 235.453 42.6959C237.494 49.5119 239.922 55.2719 242.74 59.688C246.917 66.312 251.289 70.1519 258.186 70.1519C264.306 70.1519 269.552 66.6959 269.552 62.8559C269.552 60.0719 269.067 57.5759 268.29 55.5599H266.735C264.112 55.5599 262.266 54.888 260.615 52.68C257.312 48.456 253.232 41.16 249.929 31.9439C255.563 27.1439 261.101 21.1919 264.792 14.8559C265.667 13.3199 266.055 11.8799 266.055 10.6319C266.055 6.79195 263.238 3.71995 252.357 0.647949C246.043 11.5919 236.716 21.576 230.11 26.952V4.77595C230.11 2.08795 228.459 0.839949 225.156 0.839949C219.23 0.839949 214.955 1.51195 211.264 2.37595V26.952C204.657 21.576 195.331 11.5919 189.017 0.647949C178.136 3.71995 175.319 6.79195 175.319 10.6319C175.319 11.8799 175.707 13.3199 176.582 14.8559C180.273 21.1919 185.811 27.1439 191.445 31.9439Z" fill="url(#paint3_linear_1_3529)"/>
<path fill-rule="evenodd" clip-rule="evenodd" d="M318.532 1.7998C321.058 1.7998 322.224 2.8558 322.224 4.7758V53.9278H326.401C328.927 53.9278 330.093 54.9838 330.093 56.9038V83.1118H314.938C312.412 83.1118 311.246 82.0558 311.246 80.1358V68.9998H286.571V83.1118H271.416C268.89 83.1118 267.724 82.0558 267.724 80.1358V53.9278H273.747C277.439 39.5278 279.285 23.1118 279.965 1.7998H318.532ZM303.377 54.0238V16.7758H297.451C296.771 27.7198 295.023 42.3118 292.302 54.0238H303.377Z" fill="url(#paint4_linear_1_3529)"/>
<path d="M353.426 69.0001C367.512 51.6241 380.044 27.5281 387.525 9.00012C387.816 8.32812 388.011 7.56012 388.011 6.79212C388.011 3.81612 385.582 1.80012 380.919 1.80012H370.33C367.512 10.3441 363.723 19.5601 359.157 28.3921L347.791 4.87212C346.334 1.89612 345.071 1.22412 341.962 1.22412C338.271 1.22412 333.219 3.52812 328.944 8.32812C335.259 20.5201 342.351 34.2481 348.763 46.5361C345.362 51.8161 341.962 56.9041 338.853 60.9361C337.979 61.9921 337.493 63.3361 337.493 64.1041C337.493 66.6961 339.825 69.0001 344.488 69.0001H353.426Z" fill="url(#paint5_linear_1_3529)"/>
<path d="M389.485 1.7998C388.805 5.2558 388.319 9.2878 388.319 12.7438C388.319 15.4318 389.582 16.7758 391.914 16.7758H406.875V66.0238C406.875 67.9438 408.04 68.9998 410.566 68.9998H425.721V16.7758H444.277V5.4478C444.277 2.9518 443.208 1.7998 441.265 1.7998H389.485Z" fill="url(#paint6_linear_1_3529)"/>
<path d="M440.856 49.836C440.856 47.692 441.571 46.0393 443 44.878C444.474 43.672 446.082 43.069 447.824 43.069C449.611 43.069 451.219 43.672 452.648 44.878C454.122 46.084 454.859 47.7367 454.859 49.836C454.859 51.8907 454.122 53.521 452.648 54.727C451.219 55.8883 449.611 56.469 447.824 56.469C446.082 56.469 444.474 55.8883 443 54.727C441.571 53.521 440.856 51.8907 440.856 49.836ZM503.109 64.643V56H472.088V9.1H490.312V40.523H498.687V9.1H516.978V45.682H520.395V64.643H503.109ZM549.381 47.893L550.788 37.508L537.79 56H522.514V9.1H540.671V17.676L539.532 27.525L552.396 9.1H567.672V56H549.381V47.893ZM611.398 27.525V32.282V37.508C613.542 37.6867 615.083 36.905 616.021 35.163C617.004 33.3763 617.026 31.612 616.088 29.87C615.195 28.128 613.632 27.3463 611.398 27.525ZM593.576 37.508V32.148V27.525C591.343 27.3463 589.757 28.128 588.819 29.87C587.926 31.612 587.948 33.3763 588.886 35.163C589.869 36.905 591.432 37.6867 593.576 37.508ZM611.532 8.966V12.316C618.813 12.316 624.441 14.2367 628.416 18.078C632.436 21.8747 634.446 26.6317 634.446 32.349C634.446 38.4683 632.481 43.3817 628.55 47.089C624.62 50.7517 618.947 52.583 611.532 52.583V56.134H593.442V52.583C586.028 52.583 580.355 50.7517 576.424 47.089C572.494 43.3817 570.528 38.4683 570.528 32.349C570.528 26.6317 572.516 21.8747 576.491 18.078C580.511 14.2367 586.162 12.316 593.442 12.316V8.966H611.532ZM655.242 56H636.951V9.1H656.85C659.976 9.1 662.813 9.39033 665.359 9.971C667.905 10.5517 670.25 11.512 672.394 12.852C674.582 14.1473 676.28 16.001 677.486 18.413C678.736 20.825 679.362 23.706 679.362 27.056C679.362 30.406 678.736 33.3093 677.486 35.766C676.28 38.178 674.582 40.0317 672.394 41.327C670.205 42.6223 667.838 43.5827 665.292 44.208C662.746 44.7887 659.932 45.079 656.85 45.079H655.242V56ZM655.041 31.143H657.252C658.726 31.0983 659.82 30.7187 660.535 30.004C661.294 29.2893 661.674 28.329 661.674 27.123C661.674 25.9617 661.294 25.0237 660.535 24.309C659.775 23.5943 658.681 23.237 657.252 23.237H655.041V31.143ZM714.041 56L711.964 50.573H697.09L695.08 56H676.119V54.191L694.209 8.564H714.912L733.002 54.191V56H714.041ZM704.527 26.654L701.78 38.446H707.341L704.527 26.654Z" fill="#414141"/>
</g>
<defs>
<linearGradient id="paint0_linear_1_3529" x1="-18.9282" y1="46.7222" x2="48.9614" y2="78.9826" gradientUnits="userSpaceOnUse">
<stop stop-color="#00E7F0"/>
<stop offset="1" stop-color="#1DB6FF"/>
</linearGradient>
<linearGradient id="paint1_linear_1_3529" x1="37.4459" y1="46.5316" x2="107.87" y2="81.5555" gradientUnits="userSpaceOnUse">
<stop stop-color="#00E7F0"/>
<stop offset="1" stop-color="#1DB6FF"/>
</linearGradient>
<linearGradient id="paint2_linear_1_3529" x1="97.8783" y1="46.7222" x2="165.768" y2="78.9826" gradientUnits="userSpaceOnUse">
<stop stop-color="#00E7F0"/>
<stop offset="1" stop-color="#1DB6FF"/>
</linearGradient>
<linearGradient id="paint3_linear_1_3529" x1="138.573" y1="47.1106" x2="226.989" y2="118.057" gradientUnits="userSpaceOnUse">
<stop stop-color="#00E7F0"/>
<stop offset="1" stop-color="#1DB6FF"/>
</linearGradient>
<linearGradient id="paint4_linear_1_3529" x1="246.506" y1="56.156" x2="324.346" y2="90.2282" gradientUnits="userSpaceOnUse">
<stop stop-color="#00E7F0"/>
<stop offset="1" stop-color="#1DB6FF"/>
</linearGradient>
<linearGradient id="paint5_linear_1_3529" x1="308.85" y1="46.5316" x2="379.274" y2="81.5555" gradientUnits="userSpaceOnUse">
<stop stop-color="#00E7F0"/>
<stop offset="1" stop-color="#1DB6FF"/>
</linearGradient>
<linearGradient id="paint6_linear_1_3529" x1="369.282" y1="46.7222" x2="437.172" y2="78.9826" gradientUnits="userSpaceOnUse">
<stop stop-color="#00E7F0"/>
<stop offset="1" stop-color="#1DB6FF"/>
</linearGradient>
<clipPath id="clip0_1_3529">
<rect width="774.078" height="85.352" fill="white" transform="translate(0.108765 0.647949)"/>
</clipPath>
</defs>
</svg>
