<svg width="67" height="120" viewBox="0 0 67 120" fill="none" xmlns="http://www.w3.org/2000/svg">
<path fill-rule="evenodd" clip-rule="evenodd" d="M66.6054 79.5723C65.9312 78.1156 64.5151 77.2103 62.9101 77.2103H51.145V49.9536C51.145 46.5302 48.3599 43.745 44.9365 43.745H44.5586L57.2798 28.0086C57.7487 27.4287 57.8425 26.631 57.521 25.9577C57.1997 25.2849 56.5204 24.8562 55.7745 24.8562H37.4348L38.763 2.04792C38.8121 1.2026 38.306 0.423326 37.5136 0.124536C36.722 -0.174255 35.8266 0.0771164 35.3055 0.744375L8.0592 35.6308C7.60363 36.2138 7.52041 37.0057 7.84484 37.6708C8.16952 38.3356 8.84452 38.7575 9.58436 38.7575H27.8011L27.219 43.7448H22.0523C18.6289 43.7448 15.8435 46.53 15.8435 49.9534V77.2103H4.07863C2.47315 77.2103 1.0571 78.1154 0.383066 79.5728C-0.290967 81.0295 -0.0642731 82.6947 0.974598 83.918L30.3903 118.564C31.1774 119.49 32.2796 120 33.4944 120C34.7091 120 35.8114 119.49 36.5986 118.563L66.0141 83.918C67.0528 82.6945 67.2797 81.0295 66.6054 79.5723ZM13.5519 34.8866L34.5378 8.01575L33.4511 26.6794C33.4201 27.2112 33.6098 27.7325 33.9753 28.1201C34.3411 28.5077 34.8504 28.7274 35.3832 28.7274H51.7208L29.6887 55.9817L31.8986 37.0466C31.9627 36.4976 31.7892 35.9479 31.4217 35.5352C31.0545 35.1227 30.5285 34.8866 29.9759 34.8866H13.5519ZM33.6482 116.058L63.0633 81.4127C63.1264 81.3384 63.1334 81.2862 63.0928 81.1979C63.0519 81.1098 63.0076 81.0815 62.9104 81.0815H49.2098C48.1409 81.0815 47.2743 80.2149 47.2743 79.146V49.9536C47.2743 48.6646 46.2257 47.616 44.9367 47.616H41.4294L28.497 63.6138C28.1207 64.0788 27.5626 64.3326 26.9909 64.3326C26.739 64.3328 26.4843 64.2834 26.2414 64.1813C25.4469 63.8472 24.9693 63.0285 25.069 62.1726L26.7676 47.616H22.0525C20.7635 47.616 19.7147 48.6646 19.7147 49.9536V79.146C19.7147 80.2149 18.8481 81.0815 17.7792 81.0815H4.07887C3.98162 81.0815 3.93734 81.1098 3.89645 81.1979C3.85557 81.2864 3.86258 81.3384 3.92549 81.4125L33.3412 116.058C33.3935 116.12 33.4136 116.129 33.4944 116.129C33.5754 116.129 33.5955 116.12 33.6482 116.058Z" fill="#414141"/>
</svg>
