<svg width="150" height="150" viewBox="0 0 150 150" fill="none" xmlns="http://www.w3.org/2000/svg">
<path fill-rule="evenodd" clip-rule="evenodd" d="M12.5879 33.5129C11.0492 32.0032 10.0524 29.9782 9.79113 27.7282L9.55645 27.4911C6.5129 24.4524 4.83871 20.4097 4.83871 16.1056C4.83871 7.22419 12.0629 0 20.9444 0H27.1839C33.5395 0 38.7097 5.17016 38.7097 11.5258C38.7097 15.2613 36.8879 18.6629 33.871 20.729V26.6129C33.871 29.3153 32.7532 31.754 30.9605 33.5129C38.3831 36.9871 43.5484 44.504 43.5484 53.2258H38.7097C38.7097 43.8871 31.1105 36.2903 21.7742 36.2903C12.4379 36.2903 4.83871 43.8871 4.83871 53.2258H0C0 44.504 5.16532 36.9871 12.5879 33.5129ZM104.032 0H108.871V19.3548H105.527L109.955 28.2048C110.463 29.2258 112.118 29.2282 112.628 28.2048L117.053 19.3548H113.71V0H118.548V14.5161H124.882L116.956 30.3702C115.875 32.5282 113.705 33.871 111.29 33.871C108.876 33.871 106.706 32.5282 105.624 30.3702L97.6984 14.5161H104.032V0ZM106.452 75C106.452 76.3355 105.368 77.4193 104.032 77.4193C102.697 77.4193 101.613 76.3355 101.613 75C101.613 73.6645 102.697 72.5806 104.032 72.5806C105.368 72.5806 106.452 73.6645 106.452 75ZM101.613 82.3694C101.613 87.7065 105.953 92.0468 111.29 92.0468C116.627 92.0468 120.968 87.7065 120.968 82.3403L116.129 82.3694C116.129 85.0379 113.959 87.2081 111.29 87.2081C108.622 87.2081 106.452 85.0379 106.452 82.3694V82.2581L101.613 82.3694ZM118.548 77.4193C119.884 77.4193 120.968 76.3355 120.968 75C120.968 73.6645 119.884 72.5806 118.548 72.5806C117.213 72.5806 116.129 73.6645 116.129 75C116.129 76.3355 117.213 77.4193 118.548 77.4193ZM10.1032 19.0113C9.85161 18.0702 9.67742 17.1048 9.67742 16.1056C9.67742 9.89274 14.7315 4.83871 20.9444 4.83871H27.1839C30.871 4.83871 33.871 7.83871 33.871 11.5258C33.871 13.6282 32.8113 15.5008 31.125 16.6742C27.3605 15.3605 23.8863 13.2024 21.0677 10.3863L20.0105 9.32903L18.5903 9.80081C14.2887 11.2355 11.1653 14.7581 10.1032 19.0113ZM24.1936 31.4516C26.8621 31.4516 29.0323 29.2815 29.0323 26.6129V21.0823C25.2895 19.7056 21.8081 17.6056 18.8395 14.9395C16.2073 16.35 14.5161 19.1032 14.5161 22.1661V26.6129C14.5161 29.2815 16.6863 31.4516 19.3548 31.4516H24.1936ZM0 101.613H4.83871C4.83871 92.2766 12.4379 84.6774 21.7742 84.6774C31.1105 84.6774 38.7097 92.2766 38.7097 101.613H43.5484C43.5484 92.8911 38.3831 85.3718 30.9605 81.9C32.7532 80.1435 33.871 77.7024 33.871 75V69.1161C36.8879 67.05 38.7097 63.6484 38.7097 59.9129C38.7097 53.5573 33.5395 48.3871 27.1839 48.3871H20.9444C12.0629 48.3871 4.83871 55.6113 4.83871 64.4927C4.83871 68.7968 6.5129 72.8395 9.55645 75.8782L9.79113 76.1153C10.0548 78.3653 11.0492 80.3903 12.5879 81.9C5.16532 85.3718 0 92.8911 0 101.613ZM9.67742 64.4927C9.67742 65.4944 9.85161 66.4597 10.1032 67.4008C11.1653 63.1476 14.2887 59.6226 18.5903 58.1903L20.0105 57.7185L21.0677 58.7758C23.8863 61.5919 27.3605 63.75 31.125 65.0637C32.8113 63.8879 33.871 62.0153 33.871 59.9129C33.871 56.2258 30.871 53.2258 27.1839 53.2258H20.9444C14.7315 53.2258 9.67742 58.2798 9.67742 64.4927ZM29.0323 75C29.0323 77.6685 26.8621 79.8387 24.1936 79.8387H19.3548C16.6863 79.8387 14.5161 77.6685 14.5161 75V70.5532C14.5161 67.4903 16.2073 64.7371 18.8395 63.3266C21.8081 65.9927 25.2895 68.0927 29.0323 69.4694V75ZM150 143.635V150H0V147.581C0 139.493 4.99113 132.556 12.0532 129.668C10.8242 128.24 10.021 126.467 9.79113 124.502L9.55645 124.268C6.5129 121.224 4.83871 117.184 4.83871 112.88C4.83871 103.998 12.0629 96.7742 20.9444 96.7742H27.1839C33.5395 96.7742 38.7097 101.944 38.7097 108.3C38.7097 112.033 36.8879 115.437 33.871 117.506V123.387C33.871 125.797 32.954 127.974 31.4952 129.668C37.8411 132.264 42.5177 138.126 43.3984 145.161H62.9032V125.806H43.5484V120.968H62.9032V77.4194H43.5484V72.5806H62.9032V29.0323H43.5484V24.1935H67.7419V145.161H72.5806V143.635C72.5806 125.393 84.6194 109.5 102.031 104.485L102.866 101.146C97.3597 99.7403 93.1113 95.1871 92.1532 89.5161H91.9355C86.5984 89.5161 82.2581 85.1758 82.2581 79.8387C82.2581 78.1065 82.7516 76.5024 83.5524 75.0944L80.5766 67.6379C80.0903 66.4161 79.8387 65.1218 79.8387 63.796C79.8387 59.6153 82.3306 55.8871 86.1218 54.2661L85.4565 52.9306C84.9484 51.9145 84.6798 50.7774 84.6798 49.6427C84.6798 46.3694 86.7871 43.5387 89.9226 42.5976C103.865 38.4121 118.316 36.2903 132.876 36.2903H135.975L135.411 39.2976L133.573 46.6548C139.137 48.3218 143.935 51.8661 147.174 56.7242L148.696 59.0032L139.57 63.5661L140.054 64.0524C141.786 65.7823 142.742 68.0879 142.742 70.5411C142.742 72.3532 142.212 74.1073 141.21 75.6169L139.974 77.3976C140.18 78.1814 140.323 78.9895 140.323 79.8387C140.323 85.1758 136.019 89.5161 130.727 89.5161H130.427C129.469 95.1871 125.223 99.7403 119.715 101.146L120.549 104.485C137.961 109.5 150 125.393 150 143.635ZM10.1032 115.785C9.85161 114.844 9.67742 113.881 9.67742 112.88C9.67742 106.667 14.7315 101.613 20.9444 101.613H27.1839C30.871 101.613 33.871 104.613 33.871 108.3C33.871 110.402 32.8113 112.273 31.1274 113.446C27.3629 112.137 23.8887 109.979 21.0677 107.16L20.0081 106.101L18.5903 106.575C14.2887 108.007 11.1653 111.532 10.1032 115.785ZM24.1936 128.226C26.8621 128.226 29.0323 126.056 29.0323 123.387V117.859C25.2895 116.485 21.8081 114.382 18.8395 111.716C16.2073 113.124 14.5161 115.877 14.5161 118.94V123.387C14.5161 126.056 16.6863 128.226 19.3548 128.226H24.1936ZM24.1935 133.065C31.3742 133.065 37.3524 138.305 38.5089 145.161H5.03952C6.19597 138.305 12.1742 133.065 19.3548 133.065H24.1935ZM118.019 131.792C117.213 133.662 116.395 135.527 115.483 137.352L114.351 139.619L120.145 134.983L118.019 131.792ZM106.657 105.922L107.736 101.613H114.844L115.923 105.922L111.29 112.098L106.657 105.922ZM111.29 134.913C113.032 131.402 114.513 127.778 115.841 124.103L111.29 119.55L106.74 124.101C108.068 127.778 109.548 131.4 111.29 134.913ZM119.477 109.246C119.544 109.266 119.612 109.286 119.68 109.305L119.683 109.306L119.741 109.323C119.77 109.331 119.799 109.339 119.828 109.348C119.873 109.361 119.917 109.375 119.961 109.389C119.31 112.623 118.502 115.815 117.549 118.967L114.486 115.904L119.477 109.246ZM102.619 109.389C103.268 112.623 104.078 115.817 105.031 118.967L108.094 115.904L103.103 109.246L103.016 109.271C102.884 109.309 102.75 109.347 102.619 109.389ZM94.3016 113.199C95.504 112.447 96.7573 111.767 98.0564 111.157C98.9879 115.628 100.176 120.031 101.666 124.34L96.4331 121.723L94.3016 113.199ZM102.438 134.981L108.232 139.616L107.1 137.349C106.188 135.525 105.37 133.66 104.565 131.79L102.438 134.981ZM126.148 121.72L120.915 124.338C122.405 120.031 123.593 115.628 124.524 111.157C125.823 111.767 127.077 112.447 128.279 113.197L126.148 121.72ZM135.484 79.8387C135.484 77.1702 133.35 75 130.727 75H130.645V84.6774H130.727C133.35 84.6774 135.484 82.5073 135.484 79.8387ZM91.9355 75V84.6774C89.2669 84.6774 87.0968 82.5073 87.0968 79.8387C87.0968 77.1702 89.2669 75 91.9355 75ZM104.785 62.521C103.827 61.5847 102.91 60.6 102.097 59.5161L105.968 56.6129C110.059 62.0661 116.572 65.3226 123.387 65.3226C124.723 65.3226 125.806 64.2363 125.806 62.9032C125.806 61.5702 124.723 60.4839 123.387 60.4839H120.968V55.6452H123.387C127.389 55.6452 130.645 58.9016 130.645 62.9032V70.1613H130.727C133.253 70.1613 135.537 71.1702 137.252 72.7863C137.666 72.1065 137.903 71.3395 137.903 70.5411C137.903 69.3823 137.451 68.2911 136.633 67.4734L131.4 62.2403L141.457 57.2105C138.779 54.1863 135.242 52.0282 131.274 51.0363L127.71 50.146L129.958 41.1605C116.76 41.4363 103.824 43.4758 91.3089 47.2306C90.2371 47.5524 89.5161 48.5202 89.5161 49.6403C89.5161 50.0274 89.6081 50.4169 89.7823 50.7653L92.9274 57.0581L88.4589 58.5484C86.1968 59.3008 84.6774 61.4105 84.6774 63.796C84.6774 64.5024 84.8105 65.1919 85.0694 65.8427L87.2879 71.4048C88.6742 70.6355 90.2419 70.1613 91.9355 70.1613V65.3226H94.3548C98.0153 65.3226 101.625 64.3331 104.785 62.521ZM116.129 96.7742H106.452C101.115 96.7742 96.7742 92.4339 96.7742 87.0968V70.0476C101.042 69.6387 105.143 68.1097 108.704 65.7194C113.018 68.5669 118.125 70.1613 123.387 70.1613C124.239 70.1613 125.047 69.9871 125.806 69.7161V87.0968C125.806 92.4339 121.466 96.7742 116.129 96.7742ZM77.4194 145.161H87.0968V135.484H91.9355V145.161H107.419L95.9516 135.987L100.502 129.165L92.2815 125.054L90.0895 116.286C82.2532 122.937 77.4194 132.806 77.4194 143.635V145.161ZM132.494 116.284C140.327 122.937 145.161 132.806 145.161 143.635V145.161H135.484V135.484H130.645V145.161H115.161L126.631 135.985L122.081 129.162L130.302 125.052L132.494 116.284Z"
      fill="#414141"/>
</svg>
