<svg width="73" height="65" viewBox="0 0 73 65" fill="none" xmlns="http://www.w3.org/2000/svg">
<path fill-rule="evenodd" clip-rule="evenodd" d="M10.4 64.6001H23.4L25.8 53.6001C27.4 46.1334 29 38.4001 30.6 30.4001C32.2 22.4001 33 17.8001 33 16.6001C33 12.2001 31.4 8.43343 28.2 5.3001C25 2.16676 21.2 0.600098 16.8 0.600098C12.4 0.600098 8.63332 2.16676 5.49999 5.3001C2.36665 8.43343 0.799988 12.2001 0.799988 16.6001C0.799988 19.4001 3.99999 35.4001 10.4 64.6001ZM40.8 16.6001C40.8 19.4001 44 35.4001 50.4 64.6001H63.2L65.6 53.6001C67.2 46.1334 68.8 38.4001 70.4 30.4001C72 22.4001 72.8 17.8001 72.8 16.6001C72.8 12.2001 71.2333 8.43343 68.1 5.3001C64.9667 2.16676 61.2 0.600098 56.8 0.600098C52.2667 0.600098 48.4667 2.16676 45.4 5.3001C42.3333 8.43343 40.8 12.2001 40.8 16.6001Z" fill="#1DB6FF"/>
</svg>
