<svg width="120" height="115" viewBox="0 0 120 115" fill="none" xmlns="http://www.w3.org/2000/svg">
<path fill-rule="evenodd" clip-rule="evenodd" d="M105.836 90.165L118.782 102.727C120.372 104.27 120.41 106.819 118.868 108.408L114.194 113.226L114.193 113.226L114.193 113.226C113.407 114.036 112.359 114.443 111.31 114.443C110.301 114.443 109.291 114.067 108.512 113.311L95.5659 100.749C94.7974 100.003 94.3653 99.0003 94.3491 97.9256C94.3395 97.2832 94.482 96.6633 94.7552 96.1035L89.9105 91.4021C85.6349 94.6561 80.3037 96.5912 74.5283 96.5912C66.9386 96.5912 60.1154 93.2505 55.4487 87.9637H16.4387C10.5053 87.9637 5.19184 84.896 2.22518 79.7576C-0.741725 74.6192 -0.741725 68.4836 2.22518 63.3452L34.0598 8.20632C37.0265 3.06767 42.34 0 48.2733 0C54.2066 0 59.5201 3.06791 62.4868 8.20632L85.5925 48.2267C94.0984 52.3501 99.9776 61.0722 99.9776 71.1421C99.9776 75.9002 98.6638 80.3566 96.3819 84.17L101.65 89.2822C102.07 89.1282 102.516 89.0403 102.978 89.0333C104.052 89.0206 105.068 89.419 105.836 90.165ZM52.6447 26.4949C51.6834 25.4982 50.4434 24.9712 49.0589 24.9712H47.4878C46.103 24.9712 44.863 25.498 43.9019 26.4945C42.9404 27.4909 42.4588 28.7494 42.5087 30.1333L43.2943 51.8847C43.3918 54.5776 45.5787 56.687 48.2733 56.687C50.9679 56.687 53.1551 54.5776 53.2521 51.8847L54.0377 30.1335C54.0876 28.7499 53.606 27.4916 52.6447 26.4949ZM49.5051 51.749C49.4809 52.4153 48.94 52.9369 48.2733 52.9369C47.6066 52.9369 47.0655 52.415 47.0413 51.749L46.2558 29.9978C46.2427 29.6311 46.3455 29.3618 46.6005 29.0974C46.8553 28.8335 47.1205 28.7208 47.4875 28.7208H49.0586C49.4256 28.7208 49.6909 28.8335 49.9457 29.0974C50.2004 29.3615 50.3035 29.6308 50.2904 29.9978L49.5051 51.749ZM98.7524 91.6951L97.222 93.2723L92.7279 88.9112C93.2402 88.3867 93.7307 87.8409 94.1965 87.2742L98.7524 91.6951ZM5.4726 77.8828C7.76128 81.8471 11.8608 84.2141 16.4387 84.2141H52.7014C51.9714 82.9997 51.3396 81.7199 50.8174 80.3855H16.4389C13.2451 80.3855 10.3851 78.7342 8.78845 75.9684C7.19134 73.2026 7.19134 69.9001 8.78845 67.1345L40.6229 11.9953C42.2198 9.2295 45.0798 7.57849 48.2733 7.57849C51.4668 7.57849 54.3269 9.2295 55.9238 11.9953L75.3881 45.709C77.0232 45.7636 78.6198 45.9724 80.1635 46.3228L59.2394 10.0811C56.9505 6.1166 52.8509 3.74964 48.2733 3.74964C43.6957 3.74964 39.5962 6.1166 37.3073 10.0811L5.4726 65.22C3.18344 69.1846 3.18344 73.9183 5.4726 77.8828ZM48.2733 65.0609C47.1121 65.0609 46.1674 64.1162 46.1674 62.955C46.1674 61.7938 47.1121 60.8491 48.2733 60.8491C49.4345 60.8491 50.3792 61.7938 50.3792 62.955C50.3792 64.1162 49.4345 65.0609 48.2733 65.0609ZM48.2733 57.0995C49.8414 57.0995 51.266 57.7201 52.3182 58.7271C56.1595 51.8821 63.0746 46.9874 71.1789 45.9167L52.6766 13.8699C51.7436 12.2545 50.1388 11.3279 48.2733 11.3279C46.4079 11.3279 44.8028 12.2545 43.8701 13.8701L12.0354 69.0093C11.1027 70.6247 11.1027 72.4777 12.0354 74.0936C12.9681 75.7092 14.573 76.6358 16.4387 76.6358H49.6783C49.2871 74.866 49.0793 73.028 49.0793 71.1421C49.0793 70.331 49.1193 69.5291 49.1939 68.7372C48.8937 68.7848 48.5866 68.8106 48.2733 68.8106C45.0446 68.8106 42.4178 66.1837 42.4178 62.955C42.4178 59.7264 45.0446 57.0995 48.2733 57.0995ZM52.8287 71.1419C52.8287 59.1768 62.5632 49.4425 74.5283 49.4425C86.4934 49.4425 96.2279 59.177 96.2279 71.1419C96.2279 83.1072 86.4934 92.8415 74.5283 92.8415C62.5632 92.8415 52.8287 83.1072 52.8287 71.1419ZM111.503 110.614L116.177 105.797C116.276 105.695 116.273 105.518 116.171 105.418L103.225 92.8553C103.163 92.7951 103.09 92.782 103.039 92.782H103.034C102.982 92.7829 102.907 92.7972 102.845 92.861L98.1714 97.6781C98.1095 97.7416 98.0976 97.8168 98.0983 97.8686C98.0992 97.9206 98.1135 97.9956 98.1773 98.0575L111.123 110.62C111.226 110.719 111.403 110.717 111.503 110.614ZM74.5283 52.5294C64.2653 52.5294 55.9158 60.8791 55.9158 71.1421C55.9158 81.4051 64.2653 89.7549 74.5283 89.7549C84.7913 89.7549 93.141 81.4051 93.141 71.1421C93.141 60.8791 84.7913 52.5294 74.5283 52.5294ZM59.6654 71.1419C59.6654 79.3374 66.3327 86.005 74.5283 86.005C82.7238 86.005 89.3914 79.3374 89.3914 71.1419C89.3914 62.9464 82.7238 56.2788 74.5283 56.2788C66.333 56.2788 59.6654 62.9464 59.6654 71.1419Z" fill="#414141"/>
</svg>
