<svg width="67" height="60" viewBox="0 0 67 60" fill="none" xmlns="http://www.w3.org/2000/svg">
    <path fill-rule="evenodd" clip-rule="evenodd"
          d="M22.4905 59.0993H22.4884H22.4861H22.4836H22.4808H22.4777H22.4743C16.7039 59.0988 11.2402 59.0984 6.74083 59.0983C3.02376 59.0983 0 56.0746 0 52.3576V17.7669C0 14.0497 3.02376 11.0261 6.74083 11.0261C14.5251 11.0227 20.2702 11.0251 20.3744 11.0261V5.99268C20.3744 2.68823 23.0632 0 26.3676 0H40.2424C43.5469 0 46.2351 2.68823 46.2351 5.99268V11.0261H60.2592C63.9764 11.0261 67 14.0499 67 17.7669V52.3575C67 56.0746 63.9762 59.0983 60.2592 59.0983C51.9736 59.1019 36.3492 59.1005 22.4905 59.0993ZM48.8131 57.5157V12.6088H18.1869V57.5157H48.8131ZM53.2242 12.6088V57.5157H50.3958V12.6088H53.2242ZM16.6042 57.5157V12.6088H13.7758V57.5157H16.6042ZM65.4173 17.7669V52.3576C65.4173 55.2019 63.1035 57.5157 60.2592 57.5157H54.8068V12.6088H60.2592C63.1035 12.6088 65.4173 14.9224 65.4173 17.7669ZM26.3677 1.58258C23.9355 1.58258 21.9571 3.56094 21.9571 5.99268H21.957V11.0256H24.5948V5.99268C24.5948 5.0154 25.3903 4.22043 26.3676 4.22043H40.2423C41.2195 4.22043 42.0145 5.0154 42.0145 5.99268V11.0256H44.6524V5.99268C44.6524 3.56094 42.674 1.58258 40.2423 1.58258H26.3677ZM26.1775 5.99268C26.1775 5.89166 26.2662 5.80314 26.3676 5.80314H40.2423C40.3433 5.80314 40.4318 5.8918 40.4318 5.99268V11.0261H26.1775V5.99268ZM6.74083 12.6088C3.89647 12.6088 1.58271 14.9226 1.58271 17.7669V52.3576C1.58271 55.2019 3.89647 57.5157 6.74083 57.5157H12.1932V12.6088H6.74083Z"
          fill="#"/>
</svg>
